<?xml version="1.0" encoding="UTF-8"?>
<svg width="24px" height="24px" viewBox="0 0 24 24" version="1.1" xmlns="http://www.w3.org/2000/svg" xmlns:xlink="http://www.w3.org/1999/xlink">
    <!-- Generator: Sketch 62 (91390) - https://sketch.com -->
    <title>icon_24_iconheart_n100</title>
    <desc>Created with Sketch.</desc>
    <g id="Symbols" stroke="none" stroke-width="1" fill="none" fill-rule="evenodd">
        <g id="icon_24_iconheart_n100">
            <polygon id="boundingBox" fill="#FFFFFF" opacity="0" points="24 0 0 0 0 24 24 24 24 0"></polygon>
            <g id="icon" stroke-linecap="round" stroke-linejoin="round" transform="translate(4.000000, 4.000000)" stroke="#222222" stroke-width="1.5">
                <path d="M0.761693349,7.00584456 C0.280659782,6.28963864 0,5.42759512 0,4.5 C0,2.01471863 2.01471863,0 4.5,0 C5.91363305,0 7.17502225,0.651833467 8,1.67133283 C8.82497775,0.651833467 10.0863669,0 11.5,0 C13.9852814,0 16,2.01471863 16,4.5 C16,5.42775932 15.7192408,6.28994382 15.2380512,7.00622487 C14.6995038,7.80788647 12.2917436,10.8058115 8.01477051,16 C3.71791047,10.8057003 1.30021808,7.80764848 0.761693349,7.00584456 Z" id="Combined-Shape"></path>
            </g>
        </g>
    </g>
</svg>