<?xml version="1.0" encoding="UTF-8"?>
<svg width="24px" height="24px" viewBox="0 0 24 24" version="1.1" xmlns="http://www.w3.org/2000/svg" xmlns:xlink="http://www.w3.org/1999/xlink">
    <!-- Generator: Sketch 62 (91390) - https://sketch.com -->
    <title>icon_24_iconsocial_pinterest_n100</title>
    <desc>Created with Sketch.</desc>
    <g id="Symbols" stroke="none" stroke-width="1" fill="none" fill-rule="evenodd">
        <g id="icon_24_iconsocial_pinterest_n100">
            <rect id="boundingBox" fill="#FFFFFF" opacity="0" x="0" y="0" width="24" height="24"></rect>
            <g id="icon" transform="translate(4.000000, 4.000000)" fill="#222222">
                <path d="M7.99996721,0 C3.58172838,0 0,3.58172838 0,7.99996721 C0,11.3890936 2.10865422,14.286452 5.08457487,15.4520975 C5.01466893,14.8191405 4.95151751,13.8457036 5.11237986,13.1547103 C5.25770027,12.5304097 6.05040474,9.17820358 6.05040474,9.17820358 C6.05040474,9.17820358 5.81111134,8.698961 5.81111134,7.99045843 C5.81111134,6.87806218 6.45587229,6.04758489 7.25867574,6.04758489 C7.9412095,6.04758489 8.27086911,6.56007541 8.27086911,7.17453942 C8.27086911,7.86087669 7.83385864,8.88710372 7.60833658,9.838113 C7.41986598,10.6344242 8.00763981,11.2837756 8.79299957,11.2837756 C10.2148575,11.2837756 11.3078427,9.78453593 11.3078427,7.62033732 C11.3078427,5.70494088 9.93149579,4.36564543 7.96619464,4.36564543 C5.68998914,4.36564543 4.35384142,6.0729635 4.35384142,7.83746542 C4.35384142,8.52498309 4.61871017,9.2623399 4.94922229,9.66308585 C5.01460336,9.74230383 5.02417772,9.81175072 5.00476669,9.89254257 C4.94397606,10.1452794 4.80901695,10.6886571 4.78252352,10.7998115 C4.74763613,10.9462467 4.66658196,10.977265 4.51496608,10.9068344 C3.51582269,10.4416911 2.89112855,8.98094555 2.89112855,7.80756194 C2.89112855,5.28399697 4.72468389,2.96647745 8.17702728,2.96647745 C10.9522143,2.96647745 13.1088714,4.94397606 13.1088714,7.58682706 C13.1088714,10.3439802 11.3704695,12.5628707 8.95759985,12.5628707 C8.14699264,12.5628707 7.38484743,12.14173 7.12397893,11.6442568 C7.12397893,11.6442568 6.72283952,13.171695 6.62558764,13.5459475 C6.44498637,14.2408755 5.95741541,15.1118798 5.63129701,15.6431912 C6.37980204,15.8749431 7.17526077,16 7.99996721,16 C12.4182716,16 16,12.4182716 16,7.99996721 C16,3.58172838 12.4182716,0 7.99996721,0" id="Fill-4"></path>
            </g>
        </g>
    </g>
</svg>