<?xml version="1.0" encoding="UTF-8"?>
<svg width="24px" height="24px" viewBox="0 0 24 24" version="1.1" xmlns="http://www.w3.org/2000/svg" xmlns:xlink="http://www.w3.org/1999/xlink">
    <!-- Generator: Sketch 62 (91390) - https://sketch.com -->
    <title>icon_24_iconsocial_twitter_n100</title>
    <desc>Created with Sketch.</desc>
    <g id="Symbols" stroke="none" stroke-width="1" fill="none" fill-rule="evenodd">
        <g id="icon_24_iconsocial_twitter_n100">
            <rect id="boundingBox" fill="#FFFFFF" opacity="0" x="0" y="0" width="24" height="24"></rect>
            <g id="icon" transform="translate(4.000000, 6.000000)" fill="#222222">
                <path d="M5.03168,13.0008196 C11.06944,13.0008196 14.371776,7.99857962 14.371776,3.66065962 C14.371776,3.51857962 14.371776,3.37713962 14.36224,3.23633962 C15.004672,2.77163562 15.559232,2.19627562 16,1.53713962 C15.400896,1.80261162 14.765312,1.97675562 14.11456,2.05361962 C14.799808,1.64337962 15.312768,0.998131617 15.55776,0.237939617 C14.913344,0.620339617 14.208448,0.889779617 13.473216,1.03473962 C12.23008,-0.287180383 10.150592,-0.350988383 8.828672,0.892211617 C7.976128,1.69393962 7.6144,2.88869162 7.87904,4.02865962 C5.239616,3.89637162 2.78048,2.64965162 1.1136,0.598899617 C0.242304,2.09886762 0.68736,4.01771562 2.12992,4.98097962 C1.607488,4.96549162 1.096512,4.82456362 0.64,4.57009962 L0.64,4.61169962 C0.640448,6.17432362 1.741888,7.52017962 3.2736,7.82961962 C2.790336,7.96145962 2.283264,7.98072362 1.79136,7.88593962 C2.221376,9.22321962 3.453824,10.1392516 4.85824,10.1656196 C3.695808,11.0792196 2.25984,11.5751556 0.78144,11.5736196 C0.520256,11.5731076 0.259328,11.5572996 0,11.5262596 C1.501184,12.4896516 3.247936,13.0006276 5.03168,12.9982596" id="Fill-1"></path>
            </g>
        </g>
    </g>
</svg>