<?xml version="1.0" encoding="UTF-8"?>
<svg width="24px" height="24px" viewBox="0 0 24 24" version="1.1" xmlns="http://www.w3.org/2000/svg" xmlns:xlink="http://www.w3.org/1999/xlink">
    <!-- Generator: Sketch 62 (91390) - https://sketch.com -->
    <title>icon_24_icontrash_n100</title>
    <desc>Created with Sketch.</desc>
    <g id="Symbols" stroke="none" stroke-width="1" fill="none" fill-rule="evenodd">
        <g id="icon_24_icontrash_n100">
            <rect id="boundingBox" fill="#FFFFFF" opacity="0" x="0" y="0" width="24" height="24"></rect>
            <g id="icon" transform="translate(6.000000, 4.000000)" stroke="#222222" stroke-linecap="round" stroke-linejoin="round" stroke-width="1.5">
                <path d="M1,5 L11,5 L11,15 C11,15.5522847 10.5522847,16 10,16 L2,16 C1.44771525,16 1,15.5522847 1,15 L1,5 L1,5 Z" id="Rectangle"></path>
                <polygon id="Rectangle" points="1.63202785e-14 2 12 2 12 5 1.64868119e-14 5"></polygon>
                <path d="M3,2 L3,1 C3,0.44771525 3.44771525,1.01453063e-16 4,0 L8,0 C8.55228475,-1.01453063e-16 9,0.44771525 9,1 L9,2 L9,2" id="Path"></path>
                <line x1="8" y1="8" x2="8" y2="13" id="Path"></line>
                <line x1="4" y1="8" x2="4" y2="13" id="Path"></line>
            </g>
        </g>
    </g>
</svg>