<?xml version="1.0" encoding="UTF-8"?>
<svg width="24px" height="24px" viewBox="0 0 24 24" version="1.1" xmlns="http://www.w3.org/2000/svg" xmlns:xlink="http://www.w3.org/1999/xlink">
    <!-- Generator: Sketch 62 (91390) - https://sketch.com -->
    <title>icon_24_iconsocial_instagram_n100</title>
    <desc>Created with Sketch.</desc>
    <g id="Symbols" stroke="none" stroke-width="1" fill="none" fill-rule="evenodd">
        <g id="icon_24_iconsocial_instagram_n100" fill="#222222" fill-rule="nonzero">
            <g id="icon" transform="translate(4.000000, 4.000000)">
                <path d="M11.3066667,0.0533333333 C12.5866667,0.106666667 13.7066667,0.426666667 14.6666667,1.33333333 C15.6266667,2.24 15.8933333,3.41333333 15.9466667,4.69333333 C16,5.81333333 16,6.88 16,8 C16,9.12 16,10.1866667 15.9466667,11.3066667 C15.8933333,12.5866667 15.5733333,13.7066667 14.6666667,14.6666667 C13.76,15.6266667 12.5866667,15.8933333 11.3066667,15.9466667 C10.1866667,16 9.12,16 8,16 C6.88,16 5.81333333,16 4.69333333,15.9466667 C3.41333333,15.8933333 2.29333333,15.5733333 1.33333333,14.6666667 C0.373333333,13.76 0.106666667,12.5866667 0.0533333333,11.3066667 C0.0133333333,10.4666667 0.00333333333,9.65666667 0.000833333333,8.83166667 L0,8 C0,6.88 0,5.81333333 0.0533333333,4.69333333 C0.106666667,3.41333333 0.426666667,2.29333333 1.33333333,1.33333333 C2.24,0.373333333 3.41333333,0.106666667 4.69333333,0.0533333333 C5.53333333,0.0133333333 6.34333333,0.00333333333 7.16833333,0.000833333333 L8,0 C9.12,0 10.1866667,0 11.3066667,0.0533333333 Z M3.36,1.76 C2.98666667,1.92 2.72,2.08 2.45333333,2.34666667 C2.18666667,2.61333333 1.97333333,2.88 1.86666667,3.25333333 C1.44,4.32 1.54666667,6.82666667 1.54666667,7.94666667 C1.54666667,9.06666667 1.44,11.6266667 1.86666667,12.64 C2.02666667,13.0133333 2.18666667,13.28 2.45333333,13.5466667 C2.72,13.8133333 2.98666667,14.0266667 3.36,14.1333333 C4.42666667,14.56 6.93333333,14.4533333 8.05333333,14.4533333 C9.17333333,14.4533333 11.7333333,14.56 12.7466667,14.1333333 C13.12,13.9733333 13.3866667,13.8133333 13.6533333,13.5466667 C13.92,13.28 14.1333333,13.0133333 14.24,12.64 C14.6666667,11.5733333 14.56,9.06666667 14.56,7.94666667 C14.56,6.82666667 14.6666667,4.32 14.24,3.25333333 C14.08,2.88 13.92,2.61333333 13.6533333,2.34666667 C13.3866667,2.08 13.12,1.86666667 12.7466667,1.76 C11.68,1.33333333 9.17333333,1.44 8.05333333,1.44 C6.93333333,1.44 4.37333333,1.33333333 3.36,1.76 Z M8,3.89333333 C10.2933333,3.89333333 12.1066667,5.70666667 12.1066667,8 C12.1066667,10.2933333 10.2933333,12.1066667 8,12.1066667 C5.70666667,12.1066667 3.89333333,10.2933333 3.89333333,8 C3.89333333,5.70666667 5.70666667,3.89333333 8,3.89333333 Z M8,5.33333333 C6.52724067,5.33333333 5.33333333,6.52724067 5.33333333,8 C5.33333333,9.47275933 6.52724067,10.6666667 8,10.6666667 C9.47275933,10.6666667 10.6666667,9.47275933 10.6666667,8 C10.6666667,6.52724067 9.47275933,5.33333333 8,5.33333333 Z M12.2666667,2.77333333 C12.8,2.77333333 13.2266667,3.2 13.2266667,3.73333333 C13.2266667,4.26666667 12.8,4.69333333 12.2666667,4.69333333 C11.7333333,4.69333333 11.3066667,4.26666667 11.3066667,3.73333333 C11.3066667,3.2 11.7333333,2.77333333 12.2666667,2.77333333 Z" id="Combined-Shape"></path>
            </g>
        </g>
    </g>
</svg>