<svg width="98" height="122" viewBox="0 0 98 122" fill="none" xmlns="http://www.w3.org/2000/svg">
<g clip-path="url(#clip0)">
<path d="M54.0984 115.521C54.4626 115.521 54.8268 115.521 55.1578 115.521C52.6416 109.737 49.1322 104.585 43.9342 100.895C41.7491 99.3327 39.2659 98.2025 36.9153 96.9393C34.6308 95.7094 32.4457 94.3132 31.0882 91.9863C30.8896 91.6539 30.7903 91.2882 30.5254 90.7231C31.2538 90.6899 31.8166 90.6566 32.3795 90.6566H48.5362C53.7673 90.6566 55.9193 88.6289 56.3497 83.4432C56.3828 83.2437 56.3828 83.011 56.4159 82.6454C57.5747 84.5402 58.6342 86.2687 59.6937 88.0305L60.3227 87.6981C60.1903 87.2992 60.0578 86.9003 59.8592 86.5347C53.966 77.0608 53.37 67.2877 58.3362 57.2819C60.8193 52.2957 61.0842 47.0767 59.9254 41.8245C59.5281 39.8965 58.3031 38.1347 57.2768 36.3728C54.9923 32.5168 54.5288 28.5278 56.0187 24.3393C56.2173 23.7742 56.4822 23.2423 56.8464 22.7437C57.7072 21.6467 58.568 21.6135 59.3957 22.7105C67.6065 33.78 74.5592 45.5143 76.3139 59.5091C77.0423 65.2267 76.5126 71.0772 76.7443 76.8613C76.9099 81.6481 76.9761 86.4682 77.7045 91.1885C78.6977 97.6706 82.6045 102.757 86.8423 107.543C89.2592 110.236 91.643 112.995 94.0267 115.754C94.4572 115.754 94.8545 115.787 95.2849 115.787L85.2862 104.153C80.1876 98.2358 77.7707 91.3215 77.7707 83.5429C77.7707 78.6231 77.7707 73.7033 77.8369 68.8168C78.0024 63.2987 77.3734 57.7805 75.9497 52.4619C73.0031 41.5586 67.4078 32.0514 60.8193 23.0097C59.6936 21.4805 58.5349 20.3171 56.3497 21.5138C56.3497 16.7934 56.3828 12.2726 56.3497 7.75169C56.4159 3.56323 53.7011 0.837402 49.6288 0.837402H17.8119C13.6072 0.837402 10.8923 3.49674 10.8923 7.71845C10.8923 12.6715 10.8923 17.6577 10.8923 22.644V23.9072C8.60784 23.608 6.52203 23.0097 4.50244 23.1426C1.02608 23.3753 -0.463781 26.8325 1.52271 29.6913C2.28419 30.6885 3.145 31.6525 4.10514 32.4836C6.12473 34.3451 8.21054 36.1402 10.2632 38.0017C10.5612 38.2676 10.8592 38.733 10.8261 39.0654C10.7599 39.3314 10.197 39.5641 9.83284 39.6638C7.71392 40.3619 5.49568 40.8272 3.47608 41.758C0.959868 42.8882 -0.0995913 45.3481 0.463246 47.7415C1.12541 50.2347 3.37676 51.93 5.92608 51.8967C7.54838 51.8635 9.13757 51.5643 10.793 51.3981C11.0578 52.4286 10.8592 53.1932 9.73352 53.6253C8.8396 53.991 7.94568 54.4231 7.08487 54.8885C4.99906 55.9522 3.04568 57.1822 1.8869 59.3097C0.827436 61.2709 0.496355 63.3319 1.92 65.2267C3.40987 67.188 5.52879 67.8528 7.94568 67.3542C8.87271 67.1547 9.79973 66.8223 10.7599 66.5564C11.0578 69.116 10.9916 69.3819 9.20379 70.9775C7.97879 72.0745 6.65446 73.0717 5.46257 74.2352C3.44298 76.2297 3.145 78.6896 3.9396 81.2492C4.93284 84.4404 7.08487 85.4377 10.197 84.2742C10.3957 84.2077 10.5612 84.1745 10.7599 84.1745C11.4551 88.7286 13.8058 90.7231 18.3747 90.7231H29.5653C30.8234 94.4794 33.5714 96.6069 36.8822 98.0363C44.9936 101.493 50.4896 107.61 54.0984 115.521ZM56.5484 37.4033C60.72 41.1597 60.4551 53.2597 56.5484 58.2792V37.4033ZM10.4288 37.0044C7.71392 34.3451 4.83352 31.8187 2.3173 28.9599C0.728111 27.1649 1.62203 24.8047 3.97271 24.2064C5.26392 23.9072 6.58825 23.9404 7.84635 24.2728C10.4288 24.9377 10.8923 25.7355 10.8923 28.3283V36.672L10.4288 37.0044ZM10.8592 49.3371C10.8592 49.6363 10.5281 50.1682 10.2964 50.2014C8.30987 50.4009 6.25717 50.7998 4.33689 50.5338C2.54906 50.2679 1.4896 48.7055 1.32406 46.844C1.15852 44.9825 1.98622 43.5198 3.60852 42.7885C5.82676 41.8245 8.21054 41.0932 10.8923 40.1624C10.8592 43.5863 10.8923 46.4451 10.8592 49.3371ZM10.8592 64.4621C10.8592 64.7945 10.5943 65.2932 10.3626 65.3597C8.97203 65.7586 7.48216 66.4234 6.12473 66.3237C2.3173 65.9913 0.893652 62.7003 2.94635 59.4426C4.20446 57.4481 7.78014 55.1212 10.8923 54.3566C10.8923 57.7473 10.8923 61.1047 10.8592 64.4621ZM10.793 81.9473C10.7599 82.5456 9.63419 83.277 8.87271 83.5761C7.64771 84.0748 6.52203 83.5761 5.66122 82.5124C3.84027 80.2187 4.20446 76.5621 6.52203 74.4347C7.81325 73.238 9.20379 72.1742 10.8592 70.7781C10.8923 74.7338 10.9585 78.3572 10.793 81.9473ZM19.9639 87.0665C16.4214 87.0665 14.5011 85.1053 14.5011 81.5152V10.1119C14.5011 5.79042 16.1896 4.12834 20.4937 4.12834H22.2484C22.745 7.18658 22.9105 7.35279 25.9896 7.35279H41.9808C44.7288 7.35279 45.0268 7.12009 45.4903 4.39427C50.5889 3.16433 52.9065 6.22257 52.8734 10.1783C52.7741 33.913 52.8072 57.6808 52.8072 81.4154C52.8072 85.2382 51.0193 87.0665 47.1788 87.0665H19.9639Z" fill="black"/>
<path d="M93.0336 114.524C91.014 112.197 88.9613 109.837 86.9086 107.543C82.6376 102.757 78.764 97.6706 77.7707 91.1885C77.0424 86.4682 76.9762 81.6481 76.8106 76.8613C76.612 71.0772 77.1086 65.2267 76.3802 59.5091C74.6255 45.5143 67.6728 33.78 59.462 22.7105C58.6343 21.6135 57.7735 21.6467 56.9126 22.7437C56.5485 23.2423 56.2836 23.7742 56.0849 24.3393C54.5951 28.561 55.0586 32.55 57.343 36.3728C58.3694 38.1014 59.5613 39.8965 59.9917 41.8245C61.1505 47.1099 60.8856 52.3289 58.4025 57.3151C53.4363 67.3541 53.9991 77.094 59.9255 86.5679C60.1241 86.9335 60.2566 87.3324 60.389 87.7313L59.7599 88.0638C58.7005 86.3019 57.6079 84.5401 56.4822 82.6786C56.4491 83.0443 56.416 83.277 56.416 83.4764C56.0187 88.6621 53.8336 90.6899 48.6025 90.6899H32.4126C31.8498 90.6899 31.287 90.7231 30.5586 90.7563C30.7904 91.3215 30.9228 91.6871 31.0883 92.0195C32.4458 94.3465 34.6309 95.7426 36.9153 96.9726C39.266 98.2357 41.7491 99.3992 43.9343 100.928C48.8343 104.419 52.2444 109.172 54.6944 114.557L93.0336 114.524Z" fill="white"/>
<path d="M10.8928 54.3567C10.8928 57.7473 10.8928 61.0715 10.8597 64.4289C10.8597 64.7613 10.5948 65.26 10.363 65.3265C8.97251 65.7254 7.51575 66.4234 6.12521 66.2905C2.31778 65.9913 0.894129 62.7004 2.91372 59.4427C4.17183 57.4482 7.78062 55.1212 10.8928 54.3567Z" fill="white"/>
<path d="M10.8592 40.1292C10.8592 43.5863 10.8592 46.4451 10.8261 49.3039C10.8261 49.6031 10.495 50.1349 10.2964 50.1682C8.3099 50.3676 6.2903 50.7998 4.33692 50.5006C2.58219 50.2679 1.52273 48.7055 1.32408 46.8108C1.12544 44.916 1.98625 43.4866 3.60854 42.7553C5.82679 41.7912 8.17746 41.0932 10.8592 40.1292Z" fill="white"/>
<path d="M10.429 37.0045C7.71414 34.3451 4.83373 31.7855 2.31752 28.96C0.72833 27.1981 1.65536 24.8047 3.97292 24.2396C5.23103 23.9405 6.55536 23.9737 7.84657 24.3061C10.429 24.9709 10.8925 25.7355 10.8925 28.3616V36.7385L10.429 37.0045Z" fill="white"/>
<path d="M10.8924 70.7781C10.8924 74.7006 10.9917 78.324 10.7931 81.9473C10.7599 82.5457 9.63427 83.277 8.87278 83.5762C7.64778 84.0748 6.52211 83.5762 5.6613 82.5124C3.84035 80.2187 4.20454 76.5621 6.52211 74.4347C7.84643 73.2712 9.23697 72.1742 10.8924 70.7781Z" fill="white"/>
<path d="M19.5005 59.1767V49.3704C22.5133 49.3704 25.4599 49.3371 28.4066 49.4036C28.6714 49.4036 29.1349 49.9355 29.1349 50.2347C29.2012 53.1932 29.1681 56.1517 29.1681 59.1767H19.5005ZM21.5532 51.3316V57.0825H27.314V51.3316H21.5532Z" fill="black"/>
<path d="M46.6824 41.4255C43.7026 41.4255 40.8553 41.4588 38.008 41.3923C37.677 41.3923 37.1141 40.7607 37.1141 40.395C37.0479 37.8687 37.0479 35.309 37.1141 32.7827C37.1141 32.417 37.7101 31.8186 38.008 31.7854C40.8553 31.7189 43.7026 31.7854 46.6824 31.7854V41.4255ZM39.0013 39.5307H44.7621V33.7467H39.0013V39.5307Z" fill="black"/>
<path d="M19.5005 41.3258V31.7522C22.4802 31.7522 25.3606 31.719 28.2741 31.7854C28.7045 31.8852 29.0356 32.2176 29.1349 32.6497C29.2012 35.5085 29.1681 38.3673 29.1681 41.3258H19.5005ZM27.2478 39.5308V33.78H21.5201V39.5308H27.2478Z" fill="black"/>
<path d="M44.8284 53.1932C44.8615 53.858 44.8615 54.5228 44.8946 55.1544C44.9277 56.1184 44.9277 55.088 44.9277 55.088L40.8554 55.1544L40.9216 55.2209V51.1987H36.9155L36.9817 51.2319C37.048 50.7 37.0811 50.1349 37.1473 49.4036H42.875V45.6141L44.7621 45.4146C44.8284 44.8827 44.8946 44.3509 44.9608 43.686H46.7486V47.1432L44.8615 47.3426V51.2319L44.9277 51.1987L43.0074 51.2984V53.2264H44.9277L44.8284 53.1932Z" fill="black"/>
<path d="M31.4194 31.7855H34.8627C34.9289 32.3506 34.962 32.8493 35.0282 33.4809L33.1411 33.7468V35.4754L34.9289 35.7413V41.2262L33.1742 41.5586C33.1079 42.0905 33.0417 42.5559 32.9755 43.1874L31.4525 43.3204V39.7303L33.1742 39.4976L33.2735 37.7026L31.4525 37.4366V31.7855H31.4194Z" fill="black"/>
<path d="M27.1818 43.6529L27.4136 45.4147H32.9095V49.1045L31.6514 49.2375C31.519 49.0713 31.3866 49.0048 31.3866 48.9051C31.519 47.5422 30.8899 47.0768 29.5656 47.2097C28.2413 47.3427 26.9501 47.243 25.5595 47.243C25.4933 46.6114 25.4271 46.0795 25.3609 45.4479L23.5731 45.1155L23.5068 43.6196L27.1818 43.6529Z" fill="black"/>
<path d="M40.8885 55.1544V59.1767H33.3398V57.2154H38.9682V55.1544L38.902 55.2209H40.9216L40.8885 55.1544Z" fill="black"/>
<path d="M35.0281 55.1212L33.1741 55.2874C33.0747 55.8857 33.0085 56.4841 32.9092 57.1157H31.3862V51.3981L32.8761 51.2651L33.1079 53.0602L34.8957 53.3594L35.0281 55.1212Z" fill="black"/>
<path d="M40.7891 47.2761L39.0674 47.1764L38.8688 45.4146L37.1472 45.1819L37.0479 43.686H40.7891V47.2761Z" fill="black"/>
<path d="M44.8286 51.2319L46.7158 51.3649C46.7489 51.93 46.782 52.4619 46.8482 53.1932H44.8286L44.8948 53.2597V51.2319H44.8286Z" fill="black"/>
<path d="M38.9683 55.1544H37.1805L37.0149 53.1599L36.9487 53.2264L38.9352 53.3261V55.2209L38.9683 55.1544Z" fill="black"/>
<path d="M44.8944 57.2154L44.9275 55.1212C44.9275 55.1545 44.8944 55.1545 44.8944 55.1877L46.7485 55.3207V57.1822H44.8613L44.8944 57.2154Z" fill="black"/>
<path d="M44.8615 57.1489V59.1767H43.0405V57.2154H44.9277L44.8615 57.1489Z" fill="black"/>
<path d="M23.2418 47.1764H21.5202L21.4209 45.614L23.2087 45.4811L23.2418 47.1764Z" fill="black"/>
<path d="M19.5337 43.6528H21.2884V45.2152H19.5337V43.6528Z" fill="black"/>
<path d="M35.0282 51.1655H33.3728L33.2734 49.4701L34.8957 49.3372L35.0282 51.1655Z" fill="black"/>
<path d="M36.982 53.1932H35.2935V51.3649L36.982 51.232L36.9157 51.1987C36.9157 51.8636 36.9157 52.5616 36.9157 53.2265L36.982 53.1932Z" fill="black"/>
<path d="M33.4061 45.182C33.0088 43.7526 33.5054 43.3205 34.8298 43.6529C35.2933 44.9493 34.9291 45.5144 33.4061 45.182Z" fill="black"/>
<path d="M36.8825 47.542V49.1376H35.3595C35.1278 47.4756 35.1278 47.4756 36.8825 47.542Z" fill="black"/>
<path d="M23.4072 53.3262H25.2282C25.2613 53.8913 25.2944 54.4564 25.3275 55.1212H23.5066L23.4072 53.3262Z" fill="black"/>
<path d="M41.0542 37.4365V35.7412H42.8089C42.842 36.2731 42.8751 36.8049 42.9083 37.4698L41.0542 37.4365Z" fill="black"/>
<path d="M23.4072 35.7081H25.1951C25.5924 37.1708 25.2282 37.8356 23.5397 37.4367L23.4072 35.7081Z" fill="black"/>
</g>
<defs>
<clipPath id="clip0">
<rect width="98" height="121" fill="white" transform="translate(0 0.505005)"/>
</clipPath>
</defs>
</svg>
