<svg width="27" height="22" viewBox="0 0 27 22" fill="none" xmlns="http://www.w3.org/2000/svg">
<path d="M27 3.06605C25.9875 3.54957 24.975 3.71075 23.7938 3.87192C24.975 3.22722 25.8188 2.26018 26.1562 0.970786C25.1437 1.61548 23.9625 1.93783 22.6125 2.26018C21.6 1.29313 20.0812 0.648438 18.5625 0.648438C15.6938 0.648438 13.1625 3.06605 13.1625 5.96718C13.1625 6.45071 13.1625 6.77305 13.3313 7.0954C8.775 6.93423 4.55625 4.83896 1.85625 1.61548C1.35 2.42135 1.18125 3.22722 1.18125 4.35544C1.18125 6.12836 2.19375 7.7401 3.7125 8.70714C2.86875 8.70714 2.025 8.3848 1.18125 8.06245C1.18125 10.6412 3.0375 12.7365 5.56875 13.22C5.0625 13.3812 4.55625 13.3812 4.05 13.3812C3.7125 13.3812 3.375 13.3812 3.0375 13.22C3.7125 15.3153 5.7375 16.927 8.26875 16.927C6.4125 18.3776 4.05 19.1835 1.35 19.1835C0.84375 19.1835 0.50625 19.1835 0 19.1835C2.53125 20.634 5.4 21.6011 8.4375 21.6011C18.5625 21.6011 24.1313 13.5424 24.1313 6.61188C24.1313 6.45071 24.1313 6.12836 24.1313 5.96718C25.3125 5.16131 26.325 4.19427 27 3.06605Z" fill="black"/>
</svg>
