<svg width="535" height="130" viewBox="0 0 535 130" fill="none" xmlns="http://www.w3.org/2000/svg">
<path d="M42.3 2.35L43.1875 2.81078L43.9459 1.35H42.3V2.35ZM26.2 33.36L25.3125 32.8992L25.2 33.1159V33.36H26.2ZM26.2 51V52H27.2V51H26.2ZM18.22 51H17.22V52H18.22V51ZM18.22 33.36H19.22V33.1149L19.1067 32.8976L18.22 33.36ZM2.05 2.35V1.35H0.400768L1.16331 2.81236L2.05 2.35ZM10.94 2.35L11.8443 1.92305L11.5737 1.35H10.94V2.35ZM22.21 26.22L21.3057 26.6469L22.21 28.5622L23.1143 26.6469L22.21 26.22ZM33.48 2.35V1.35H32.8463L32.5757 1.92305L33.48 2.35ZM41.4125 1.88921L25.3125 32.8992L27.0875 33.8208L43.1875 2.81078L41.4125 1.88921ZM25.2 33.36V51H27.2V33.36H25.2ZM26.2 50H18.22V52H26.2V50ZM19.22 51V33.36H17.22V51H19.22ZM19.1067 32.8976L2.93669 1.88764L1.16331 2.81236L17.3333 33.8224L19.1067 32.8976ZM2.05 3.35H10.94V1.35H2.05V3.35ZM10.0357 2.77694L21.3057 26.6469L23.1143 25.7931L11.8443 1.92305L10.0357 2.77694ZM23.1143 26.6469L34.3843 2.77694L32.5757 1.92305L21.3057 25.7931L23.1143 26.6469ZM33.48 3.35H42.3V1.35H33.48V3.35ZM58.2928 48.34L57.799 49.2096L57.8053 49.2132L57.8117 49.2167L58.2928 48.34ZM49.2628 39.45L48.3952 39.9473L48.3988 39.9536L48.4025 39.9598L49.2628 39.45ZM49.2628 13.76L48.4025 13.2502L48.3979 13.2581L49.2628 13.76ZM58.2928 4.94L58.7785 5.81416L58.7821 5.81214L58.2928 4.94ZM83.3528 4.94L82.859 5.80956L82.8653 5.81316L82.8717 5.81666L83.3528 4.94ZM92.3828 13.76L91.5179 14.2619L91.5179 14.2619L92.3828 13.76ZM92.3828 39.45L93.2478 39.9519L93.2504 39.9473L92.3828 39.45ZM83.3528 48.34L83.8385 49.2142L83.8421 49.2121L83.3528 48.34ZM79.4328 42.39L79.9307 43.2573L79.9426 43.2503L79.4328 42.39ZM85.3128 36.09L84.4276 35.6249L84.4246 35.6306L85.3128 36.09ZM85.3128 17.12L84.4245 17.5795L84.4309 17.5914L85.3128 17.12ZM79.4328 10.89L78.9349 11.7573L78.9349 11.7573L79.4328 10.89ZM62.2128 10.89L62.7107 11.7573L62.7107 11.7573L62.2128 10.89ZM56.2628 17.12L55.3808 16.6486L55.3746 16.6606L56.2628 17.12ZM56.2628 36.09L55.3714 36.5432L55.3761 36.5524L55.3809 36.5614L56.2628 36.09ZM62.2128 42.39L61.703 43.2504L61.7149 43.2573L62.2128 42.39ZM70.8228 50.49C66.4579 50.49 62.4476 49.4794 58.7739 47.4633L57.8117 49.2167C61.7914 51.4006 66.1344 52.49 70.8228 52.49V50.49ZM58.7866 47.4704C55.1597 45.4107 52.2754 42.5721 50.1231 38.9402L48.4025 39.9598C50.7303 43.8879 53.8659 46.976 57.799 49.2096L58.7866 47.4704ZM50.1304 38.9527C48.0307 35.2893 46.9728 31.1698 46.9728 26.57H44.9728C44.9728 31.4902 46.1083 35.9573 48.3952 39.9473L50.1304 38.9527ZM46.9728 26.57C46.9728 21.9701 48.0307 17.876 50.1278 14.2619L48.3979 13.2581C46.1083 17.204 44.9728 21.6499 44.9728 26.57H46.9728ZM50.1231 14.2698C52.2743 10.6397 55.156 7.82661 58.7785 5.81415L57.8072 4.06584C53.8696 6.25338 50.7314 9.32026 48.4025 13.2502L50.1231 14.2698ZM58.7821 5.81214C62.4544 3.75203 66.4618 2.72 70.8228 2.72V0.719996C66.1305 0.719996 61.7845 1.83463 57.8036 4.06785L58.7821 5.81214ZM70.8228 2.72C75.2324 2.72 79.2375 3.75289 82.859 5.80956L83.8466 4.07043C79.9082 1.83377 75.5599 0.719996 70.8228 0.719996V2.72ZM82.8717 5.81666C86.5385 7.82892 89.4159 10.6392 91.5179 14.2619L93.2478 13.2581C90.9631 9.32076 87.8205 6.25108 83.8339 4.06333L82.8717 5.81666ZM91.5179 14.2619C93.615 17.876 94.6728 21.9701 94.6728 26.57H96.6728C96.6728 21.6499 95.5373 17.204 93.2478 13.2581L91.5179 14.2619ZM94.6728 26.57C94.6728 31.1698 93.615 35.2893 91.5152 38.9527L93.2504 39.9473C95.5373 35.9573 96.6728 31.4902 96.6728 26.57H94.6728ZM91.5179 38.9481C89.4148 42.5727 86.5348 45.4084 82.8636 47.4679L83.8421 49.2121C87.8242 46.9783 90.9642 43.8873 93.2478 39.9519L91.5179 38.9481ZM82.8672 47.4658C79.2443 49.4785 75.2363 50.49 70.8228 50.49V52.49C75.556 52.49 79.9013 51.4015 83.8385 49.2142L82.8672 47.4658ZM70.8228 45.56C74.1982 45.56 77.2432 44.8001 79.9307 43.2573L78.9349 41.5227C76.5824 42.8733 73.8875 43.56 70.8228 43.56V45.56ZM79.9426 43.2503C82.6305 41.6575 84.7186 39.4155 86.201 36.5494L84.4246 35.6306C83.107 38.1779 81.2751 40.1359 78.923 41.5297L79.9426 43.2503ZM86.1981 36.5551C87.731 33.6375 88.4828 30.3001 88.4828 26.57H86.4828C86.4828 30.0266 85.7879 33.0358 84.4276 35.6249L86.1981 36.5551ZM88.4828 26.57C88.4828 22.8404 87.7312 19.5233 86.1947 16.6486L84.4309 17.5914C85.7878 20.1301 86.4828 23.113 86.4828 26.57H88.4828ZM86.201 16.6606C84.7173 13.792 82.6256 11.5698 79.9307 10.0227L78.9349 11.7573C81.28 13.1035 83.1083 15.0346 84.4246 17.5794L86.201 16.6606ZM79.9307 10.0227C77.2432 8.47994 74.1982 7.72 70.8228 7.72V9.72C73.8875 9.72 76.5824 10.4067 78.9349 11.7573L79.9307 10.0227ZM70.8228 7.72C67.4475 7.72 64.4024 8.47994 61.7149 10.0227L62.7107 11.7573C65.0632 10.4067 67.7582 9.72 70.8228 9.72V7.72ZM61.7149 10.0227C59.023 11.5681 56.9107 13.7863 55.3809 16.6486L57.1447 17.5914C58.5082 15.0403 60.3626 13.1052 62.7107 11.7573L61.7149 10.0227ZM55.3746 16.6606C53.8891 19.5326 53.1628 22.8454 53.1628 26.57H55.1628C55.1628 23.108 55.8366 20.1207 57.151 17.5794L55.3746 16.6606ZM53.1628 26.57C53.1628 30.2951 53.8892 33.6282 55.3714 36.5432L57.1542 35.6368C55.8364 33.0451 55.1628 30.0315 55.1628 26.57H53.1628ZM55.3809 36.5614C56.9094 39.4212 59.0181 41.6592 61.703 43.2503L62.7226 41.5297C60.3675 40.1341 58.5095 38.1721 57.1447 35.6186L55.3809 36.5614ZM61.7149 43.2573C64.4024 44.8001 67.4475 45.56 70.8228 45.56V43.56C67.7582 43.56 65.0632 42.8733 62.7107 41.5227L61.7149 43.2573ZM111.435 2.35H112.435V1.35H111.435V2.35ZM114.305 41.69L113.607 42.4058L113.616 42.4141L114.305 41.69ZM130.545 41.69L129.856 40.9658L129.847 40.9742L130.545 41.69ZM133.485 2.35V1.35H132.485V2.35H133.485ZM141.465 2.35H142.465V1.35H141.465V2.35ZM138.875 43.3L139.723 43.8313L139.723 43.8313L138.875 43.3ZM131.945 49.46L131.522 48.5542L131.522 48.5542L131.945 49.46ZM112.765 49.46L112.336 50.3632L112.342 50.3658L112.765 49.46ZM105.975 43.3L105.122 43.8209L105.122 43.8209L105.975 43.3ZM103.455 2.35V1.35H102.455V2.35H103.455ZM110.435 2.35V33.36H112.435V2.35H110.435ZM110.435 33.36C110.435 37.2115 111.437 40.2886 113.607 42.4058L115.004 40.9742C113.347 39.3581 112.435 36.8819 112.435 33.36H110.435ZM113.616 42.4141C115.809 44.5029 118.789 45.49 122.425 45.49V43.49C119.155 43.49 116.722 42.6104 114.995 40.9659L113.616 42.4141ZM122.425 45.49C126.103 45.49 129.091 44.5057 131.244 42.4058L129.847 40.9742C128.173 42.6076 125.748 43.49 122.425 43.49V45.49ZM131.235 42.4141C133.457 40.2982 134.485 37.218 134.485 33.36H132.485C132.485 36.8754 131.554 39.3485 129.856 40.9659L131.235 42.4141ZM134.485 33.36V2.35H132.485V33.36H134.485ZM133.485 3.35H141.465V1.35H133.485V3.35ZM140.465 2.35V33.22H142.465V2.35H140.465ZM140.465 33.22C140.465 37.0403 139.635 40.2065 138.028 42.7687L139.723 43.8313C141.569 40.8868 142.465 37.333 142.465 33.22H140.465ZM138.028 42.7687C136.402 45.3621 134.238 47.2839 131.522 48.5542L132.369 50.3658C135.44 48.9295 137.896 46.7446 139.723 43.8313L138.028 42.7687ZM131.522 48.5542C128.773 49.8397 125.723 50.49 122.355 50.49V52.49C125.988 52.49 129.331 51.7869 132.369 50.3658L131.522 48.5542ZM122.355 50.49C118.988 50.49 115.938 49.8397 113.189 48.5542L112.342 50.3658C115.38 51.7869 118.723 52.49 122.355 52.49V50.49ZM113.195 48.5569C110.528 47.289 108.41 45.3706 106.829 42.7791L105.122 43.8209C106.901 46.7361 109.31 48.9243 112.336 50.3631L113.195 48.5569ZM106.829 42.7791C105.265 40.2151 104.455 37.0451 104.455 33.22H102.455C102.455 37.3283 103.326 40.8782 105.122 43.8209L106.829 42.7791ZM104.455 33.22V2.35H102.455V33.22H104.455ZM103.455 3.35H111.435V1.35H103.455V3.35ZM177.125 51L176.259 51.4988L176.547 52H177.125V51ZM165.925 31.54L166.792 31.0412L166.504 30.54H165.925V31.54ZM159.835 31.54V30.54H158.835V31.54H159.835ZM159.835 51V52H160.835V51H159.835ZM151.855 51H150.855V52H151.855V51ZM151.855 2.35V1.35H150.855V2.35H151.855ZM178.105 4.31L177.652 5.20118L177.658 5.20442L178.105 4.31ZM183.915 9.56L183.048 10.0581L183.052 10.065L183.056 10.0718L183.915 9.56ZM183.075 25.59L182.262 25.0088L182.26 25.0116L183.075 25.59ZM174.605 30.84L174.369 29.8685L173.052 30.1895L173.747 31.3527L174.605 30.84ZM186.645 51V52H188.407L187.504 50.4873L186.645 51ZM159.835 25.17H158.835V26.17H159.835V25.17ZM175.375 22.93L174.679 22.2121L174.674 22.2175L174.668 22.2229L175.375 22.93ZM175.445 11.03L174.75 11.7482L174.756 11.7539L174.762 11.7595L175.445 11.03ZM159.835 8.86V7.86H158.835V8.86H159.835ZM177.992 50.5012L166.792 31.0412L165.059 32.0388L176.259 51.4988L177.992 50.5012ZM165.925 30.54H159.835V32.54H165.925V30.54ZM158.835 31.54V51H160.835V31.54H158.835ZM159.835 50H151.855V52H159.835V50ZM152.855 51V2.35H150.855V51H152.855ZM151.855 3.35H168.655V1.35H151.855V3.35ZM168.655 3.35C172.276 3.35 175.261 3.98404 177.652 5.20116L178.559 3.41883C175.817 2.02262 172.501 1.35 168.655 1.35V3.35ZM177.658 5.20442C180.124 6.43714 181.901 8.06056 183.048 10.0581L184.783 9.06188C183.41 6.67277 181.314 4.79618 178.553 3.41557L177.658 5.20442ZM183.056 10.0718C184.265 12.1009 184.875 14.3722 184.875 16.91H186.875C186.875 14.0344 186.179 11.4057 184.775 9.04819L183.056 10.0718ZM184.875 16.91C184.875 19.8722 184.009 22.5628 182.262 25.0088L183.889 26.1712C185.875 23.3905 186.875 20.2944 186.875 16.91H184.875ZM182.26 25.0116C180.611 27.3361 178.022 28.9774 174.369 29.8685L174.842 31.8115C178.842 30.836 181.899 28.9773 183.891 26.1684L182.26 25.0116ZM173.747 31.3527L185.787 51.5127L187.504 50.4873L175.464 30.3273L173.747 31.3527ZM186.645 50H177.125V52H186.645V50ZM159.835 26.17H168.655V24.17H159.835V26.17ZM168.655 26.17C171.796 26.17 174.336 25.3841 176.083 23.6371L174.668 22.2229C173.429 23.4625 171.488 24.17 168.655 24.17V26.17ZM176.072 23.6479C177.84 21.9333 178.685 19.6494 178.685 16.91H176.685C176.685 19.2106 175.991 20.94 174.679 22.2121L176.072 23.6479ZM178.685 16.91C178.685 14.1821 177.869 11.9318 176.129 10.3005L174.762 11.7595C176.008 12.9282 176.685 14.5979 176.685 16.91H178.685ZM176.141 10.3118C174.391 8.61597 171.83 7.86 168.655 7.86V9.86C171.548 9.86 173.513 10.5507 174.75 11.7482L176.141 10.3118ZM168.655 7.86H159.835V9.86H168.655V7.86ZM158.835 8.86V25.17H160.835V8.86H158.835ZM203.294 49.81L202.886 50.7231L202.893 50.7262L202.9 50.7291L203.294 49.81ZM197.134 44.91L197.949 44.3305L197.949 44.3305L197.134 44.91ZM194.894 37.56V36.56H193.894V37.56H194.894ZM203.434 37.56L204.43 37.4715L204.349 36.56H203.434V37.56ZM205.884 42.74L205.201 43.4703L205.207 43.4757L205.212 43.481L205.884 42.74ZM218.554 42.81L219.201 43.5725L219.208 43.5669L219.214 43.5612L218.554 42.81ZM219.394 33.64L218.654 34.3127L218.662 34.3217L218.671 34.3305L219.394 33.64ZM215.824 31.26L215.453 32.1885L215.463 32.1926L215.824 31.26ZM209.944 29.44L209.688 30.4067L209.693 30.408L209.944 29.44ZM202.174 26.92L201.762 27.8311L201.775 27.837L201.788 27.8424L202.174 26.92ZM197.134 8.23L197.966 8.7847L197.966 8.7847L197.134 8.23ZM203.014 3.4L203.42 4.31381L203.42 4.31381L203.014 3.4ZM223.314 5.29L222.691 6.07206L222.697 6.0774L222.704 6.08262L223.314 5.29ZM228.354 14.95V15.95H229.437L229.351 14.8707L228.354 14.95ZM219.534 14.95L218.537 15.0287L218.61 15.95H219.534V14.95ZM205.324 10.26L205.952 11.0384L205.952 11.0384L205.324 10.26ZM204.484 19.01L203.742 19.6809L203.759 19.6994L203.777 19.7171L204.484 19.01ZM213.724 23.07L213.989 22.1059L213.984 22.1044L213.724 23.07ZM221.564 25.73L221.16 26.6447L221.168 26.6481L221.564 25.73ZM226.744 29.86L225.944 30.46L225.952 30.4712L225.961 30.4822L226.744 29.86ZM226.884 44.21L226.033 43.6849L226.029 43.6915L226.025 43.6982L226.884 44.21ZM221.074 49.53L221.534 50.4178L221.54 50.4146L221.074 49.53ZM212.114 50.49C208.963 50.49 206.16 49.9501 203.688 48.8909L202.9 50.7291C205.655 51.9099 208.732 52.49 212.114 52.49V50.49ZM203.702 48.8969C201.233 47.7948 199.328 46.2692 197.949 44.3305L196.319 45.4895C197.927 47.7508 200.128 49.4919 202.886 50.7231L203.702 48.8969ZM197.949 44.3305C196.587 42.4145 195.894 40.1712 195.894 37.56H193.894C193.894 40.5488 194.695 43.2055 196.319 45.4895L197.949 44.3305ZM194.894 38.56H203.434V36.56H194.894V38.56ZM202.438 37.6485C202.645 39.9765 203.562 41.9374 205.201 43.4703L206.567 42.0097C205.312 40.8359 204.596 39.3435 204.43 37.4715L202.438 37.6485ZM205.212 43.481C206.942 45.0485 209.287 45.77 212.114 45.77V43.77C209.621 43.77 207.813 43.1382 206.556 41.999L205.212 43.481ZM212.114 45.77C215.018 45.77 217.424 45.0803 219.201 43.5725L217.907 42.0475C216.604 43.153 214.716 43.77 212.114 43.77V45.77ZM219.214 43.5612C220.976 42.0128 221.864 40.0096 221.864 37.63H219.864C219.864 39.4504 219.212 40.9006 217.894 42.0588L219.214 43.5612ZM221.864 37.63C221.864 35.7812 221.302 34.1904 220.117 32.9495L218.671 34.3305C219.446 35.143 219.864 36.2121 219.864 37.63H221.864ZM220.134 32.9673C219.084 31.8128 217.759 30.9368 216.185 30.3274L215.463 32.1926C216.782 32.7032 217.837 33.4138 218.654 34.3127L220.134 32.9673ZM216.195 30.3315C214.738 29.7485 212.731 29.1295 210.195 28.472L209.693 30.408C212.197 31.0571 214.11 31.6515 215.453 32.1885L216.195 30.3315ZM210.2 28.4733C207.051 27.6398 204.509 26.8133 202.56 25.9976L201.788 27.8424C203.852 28.7067 206.49 29.5602 209.688 30.4067L210.2 28.4733ZM202.586 26.0089C200.786 25.1945 199.233 23.9491 197.927 22.2503L196.341 23.4697C197.835 25.4109 199.642 26.8722 201.762 27.8311L202.586 26.0089ZM197.927 22.2503C196.699 20.6539 196.034 18.4635 196.034 15.58H194.034C194.034 18.7631 194.769 21.4261 196.341 23.4697L197.927 22.2503ZM196.034 15.58C196.034 12.955 196.687 10.7027 197.966 8.7847L196.302 7.6753C194.781 9.95729 194.034 12.605 194.034 15.58H196.034ZM197.966 8.7847C199.251 6.85683 201.057 5.36427 203.42 4.31381L202.608 2.48619C199.931 3.67573 197.817 5.40317 196.302 7.6753L197.966 8.7847ZM203.42 4.31381C205.789 3.26089 208.563 2.72 211.764 2.72V0.719996C208.338 0.719996 205.279 1.2991 202.608 2.48619L203.42 4.31381ZM211.764 2.72C216.305 2.72 219.92 3.86372 222.691 6.07206L223.937 4.50794C220.735 1.95628 216.649 0.719996 211.764 0.719996V2.72ZM222.704 6.08262C225.495 8.22931 227.051 11.1802 227.357 15.0293L229.351 14.8707C229.004 10.5064 227.2 7.01735 223.924 4.49737L222.704 6.08262ZM228.354 13.95H219.534V15.95H228.354V13.95ZM220.531 14.8713C220.367 12.7928 219.371 11.0361 217.647 9.62604L216.381 11.174C217.737 12.2839 218.421 13.5605 218.537 15.0287L220.531 14.8713ZM217.647 9.62604C215.885 8.18448 213.612 7.51 210.924 7.51V9.51C213.276 9.51 215.063 10.0955 216.381 11.174L217.647 9.62604ZM210.924 7.51C208.463 7.51 206.359 8.14086 204.696 9.48159L205.952 11.0384C207.183 10.0458 208.812 9.51 210.924 9.51V7.51ZM204.696 9.48159C202.971 10.8732 202.154 12.865 202.154 15.3H204.154C204.154 13.3483 204.784 11.9801 205.952 11.0384L204.696 9.48159ZM202.154 15.3C202.154 17.0067 202.668 18.4929 203.742 19.6809L205.226 18.3391C204.527 17.5671 204.154 16.58 204.154 15.3H202.154ZM203.777 19.7171C204.819 20.7589 206.105 21.5753 207.613 22.1785L208.355 20.3215C207.063 19.8047 206.016 19.1278 205.191 18.3029L203.777 19.7171ZM207.613 22.1785C209.065 22.7594 211.021 23.3778 213.464 24.0356L213.984 22.1044C211.574 21.4555 209.703 20.8606 208.355 20.3215L207.613 22.1785ZM213.459 24.0341C216.653 24.9137 219.215 25.7853 221.16 26.6447L221.968 24.8153C219.9 23.9014 217.235 22.9996 213.989 22.1059L213.459 24.0341ZM221.168 26.6481C223.054 27.4626 224.644 28.7264 225.944 30.46L227.544 29.26C226.044 27.2602 224.181 25.7707 221.96 24.8119L221.168 26.6481ZM225.961 30.4822C227.227 32.0752 227.914 34.2824 227.914 37.21H229.914C229.914 33.9776 229.154 31.2848 227.527 29.2378L225.961 30.4822ZM227.914 37.21C227.914 39.4899 227.293 41.6424 226.033 43.6849L227.735 44.7351C229.181 42.3909 229.914 39.8768 229.914 37.21H227.914ZM226.025 43.6982C224.825 45.7128 223.034 47.3659 220.608 48.6454L221.54 50.4146C224.247 48.9874 226.33 47.0938 227.743 44.7218L226.025 43.6982ZM220.614 48.6422C218.263 49.8609 215.441 50.49 212.114 50.49V52.49C215.693 52.49 218.844 51.8125 221.534 50.4178L220.614 48.6422ZM287.944 2.35H288.944V1.35H287.944V2.35ZM287.944 8.86V9.86H288.944V8.86H287.944ZM274.994 8.86V7.86H273.994V8.86H274.994ZM274.994 51V52H275.994V51H274.994ZM267.014 51H266.014V52H267.014V51ZM267.014 8.86H268.014V7.86H267.014V8.86ZM253.994 8.86H252.994V9.86H253.994V8.86ZM253.994 2.35V1.35H252.994V2.35H253.994ZM286.944 2.35V8.86H288.944V2.35H286.944ZM287.944 7.86H274.994V9.86H287.944V7.86ZM273.994 8.86V51H275.994V8.86H273.994ZM274.994 50H267.014V52H274.994V50ZM268.014 51V8.86H266.014V51H268.014ZM267.014 7.86H253.994V9.86H267.014V7.86ZM254.994 8.86V2.35H252.994V8.86H254.994ZM253.994 3.35H287.944V1.35H253.994V3.35ZM305.685 48.34L305.192 49.2096L305.198 49.2132L305.204 49.2167L305.685 48.34ZM296.655 39.45L295.788 39.9473L295.791 39.9536L295.795 39.9598L296.655 39.45ZM296.655 13.76L295.795 13.2502L295.79 13.2581L296.655 13.76ZM305.685 4.94L306.171 5.81416L306.175 5.81214L305.685 4.94ZM330.745 4.94L330.252 5.80956L330.258 5.81316L330.264 5.81666L330.745 4.94ZM339.775 13.76L338.91 14.2619L338.91 14.2619L339.775 13.76ZM339.775 39.45L340.64 39.9519L340.643 39.9473L339.775 39.45ZM330.745 48.34L331.231 49.2142L331.235 49.2121L330.745 48.34ZM326.825 42.39L327.323 43.2573L327.335 43.2503L326.825 42.39ZM332.705 36.09L331.82 35.6249L331.817 35.6306L332.705 36.09ZM332.705 17.12L331.817 17.5795L331.823 17.5914L332.705 17.12ZM326.825 10.89L326.328 11.7573L326.328 11.7573L326.825 10.89ZM309.605 10.89L310.103 11.7573L310.103 11.7573L309.605 10.89ZM303.655 17.12L302.773 16.6486L302.767 16.6606L303.655 17.12ZM303.655 36.09L302.764 36.5432L302.769 36.5524L302.773 36.5614L303.655 36.09ZM309.605 42.39L309.096 43.2504L309.108 43.2573L309.605 42.39ZM318.215 50.49C313.85 50.49 309.84 49.4794 306.166 47.4633L305.204 49.2167C309.184 51.4006 313.527 52.49 318.215 52.49V50.49ZM306.179 47.4704C302.552 45.4107 299.668 42.5721 297.516 38.9402L295.795 39.9598C298.123 43.8879 301.258 46.976 305.192 49.2096L306.179 47.4704ZM297.523 38.9527C295.423 35.2893 294.365 31.1698 294.365 26.57H292.365C292.365 31.4902 293.501 35.9573 295.788 39.9473L297.523 38.9527ZM294.365 26.57C294.365 21.9701 295.423 17.876 297.52 14.2619L295.79 13.2581C293.501 17.204 292.365 21.6499 292.365 26.57H294.365ZM297.516 14.2698C299.667 10.6397 302.549 7.82661 306.171 5.81415L305.2 4.06584C301.262 6.25338 298.124 9.32026 295.795 13.2502L297.516 14.2698ZM306.175 5.81214C309.847 3.75203 313.854 2.72 318.215 2.72V0.719996C313.523 0.719996 309.177 1.83463 305.196 4.06785L306.175 5.81214ZM318.215 2.72C322.625 2.72 326.63 3.75289 330.252 5.80956L331.239 4.07043C327.301 1.83377 322.952 0.719996 318.215 0.719996V2.72ZM330.264 5.81666C333.931 7.82892 336.808 10.6392 338.91 14.2619L340.64 13.2581C338.356 9.32076 335.213 6.25108 331.226 4.06333L330.264 5.81666ZM338.91 14.2619C341.008 17.876 342.065 21.9701 342.065 26.57H344.065C344.065 21.6499 342.93 17.204 340.64 13.2581L338.91 14.2619ZM342.065 26.57C342.065 31.1698 341.008 35.2893 338.908 38.9527L340.643 39.9473C342.93 35.9573 344.065 31.4902 344.065 26.57H342.065ZM338.91 38.9481C336.807 42.5727 333.927 45.4084 330.256 47.4679L331.235 49.2121C335.217 46.9783 338.357 43.8873 340.64 39.9519L338.91 38.9481ZM330.26 47.4658C326.637 49.4785 322.629 50.49 318.215 50.49V52.49C322.949 52.49 327.294 51.4015 331.231 49.2142L330.26 47.4658ZM318.215 45.56C321.591 45.56 324.636 44.8001 327.323 43.2573L326.328 41.5227C323.975 42.8733 321.28 43.56 318.215 43.56V45.56ZM327.335 43.2503C330.023 41.6575 332.111 39.4155 333.594 36.5494L331.817 35.6306C330.5 38.1779 328.668 40.1359 326.316 41.5297L327.335 43.2503ZM333.591 36.5551C335.124 33.6375 335.875 30.3001 335.875 26.57H333.875C333.875 30.0266 333.18 33.0358 331.82 35.6249L333.591 36.5551ZM335.875 26.57C335.875 22.8404 335.124 19.5233 333.587 16.6486L331.823 17.5914C333.18 20.1301 333.875 23.113 333.875 26.57H335.875ZM333.594 16.6606C332.11 13.792 330.018 11.5698 327.323 10.0227L326.328 11.7573C328.673 13.1035 330.501 15.0346 331.817 17.5794L333.594 16.6606ZM327.323 10.0227C324.636 8.47994 321.591 7.72 318.215 7.72V9.72C321.28 9.72 323.975 10.4067 326.328 11.7573L327.323 10.0227ZM318.215 7.72C314.84 7.72 311.795 8.47994 309.108 10.0227L310.103 11.7573C312.456 10.4067 315.151 9.72 318.215 9.72V7.72ZM309.108 10.0227C306.416 11.5681 304.303 13.7863 302.773 16.6486L304.537 17.5914C305.901 15.0403 307.755 13.1052 310.103 11.7573L309.108 10.0227ZM302.767 16.6606C301.282 19.5326 300.555 22.8454 300.555 26.57H302.555C302.555 23.108 303.229 20.1207 304.544 17.5794L302.767 16.6606ZM300.555 26.57C300.555 30.2951 301.282 33.6282 302.764 36.5432L304.547 35.6368C303.229 33.0451 302.555 30.0315 302.555 26.57H300.555ZM302.773 36.5614C304.302 39.4212 306.411 41.6592 309.096 43.2503L310.115 41.5297C307.76 40.1341 305.902 38.1721 304.537 35.6186L302.773 36.5614ZM309.108 43.2573C311.795 44.8001 314.84 45.56 318.215 45.56V43.56C315.151 43.56 312.456 42.8733 310.103 41.5227L309.108 43.2573ZM378.762 48.34L378.268 49.2096L378.274 49.2132L378.28 49.2167L378.762 48.34ZM369.732 39.45L368.864 39.9473L368.868 39.9536L368.871 39.9598L369.732 39.45ZM369.732 13.76L368.871 13.2502L368.867 13.2581L369.732 13.76ZM378.762 4.94L379.247 5.81416L379.251 5.81214L378.762 4.94ZM403.822 4.94L403.328 5.80956L403.334 5.81316L403.34 5.81666L403.822 4.94ZM412.852 13.76L411.987 14.2619L411.987 14.2619L412.852 13.76ZM412.852 39.45L413.717 39.9519L413.719 39.9473L412.852 39.45ZM403.822 48.34L404.307 49.2142L404.311 49.2121L403.822 48.34ZM399.902 42.39L400.399 43.2573L400.411 43.2503L399.902 42.39ZM405.782 36.09L404.896 35.6249L404.893 35.6306L405.782 36.09ZM405.782 17.12L404.893 17.5795L404.9 17.5914L405.782 17.12ZM399.902 10.89L399.404 11.7573L399.404 11.7573L399.902 10.89ZM382.682 10.89L383.179 11.7573L383.179 11.7573L382.682 10.89ZM376.732 17.12L375.85 16.6486L375.843 16.6606L376.732 17.12ZM376.732 36.09L375.84 36.5432L375.845 36.5524L375.85 36.5614L376.732 36.09ZM382.682 42.39L382.172 43.2504L382.184 43.2573L382.682 42.39ZM391.292 50.49C386.927 50.49 382.916 49.4794 379.243 47.4633L378.28 49.2167C382.26 51.4006 386.603 52.49 391.292 52.49V50.49ZM379.255 47.4704C375.628 45.4107 372.744 42.5721 370.592 38.9402L368.871 39.9598C371.199 43.8879 374.335 46.976 378.268 49.2096L379.255 47.4704ZM370.599 38.9527C368.499 35.2893 367.442 31.1698 367.442 26.57H365.442C365.442 31.4902 366.577 35.9573 368.864 39.9473L370.599 38.9527ZM367.442 26.57C367.442 21.9701 368.499 17.876 370.597 14.2619L368.867 13.2581C366.577 17.204 365.442 21.6499 365.442 26.57H367.442ZM370.592 14.2698C372.743 10.6397 375.625 7.82661 379.247 5.81415L378.276 4.06584C374.338 6.25338 371.2 9.32026 368.871 13.2502L370.592 14.2698ZM379.251 5.81214C382.923 3.75203 386.931 2.72 391.292 2.72V0.719996C386.599 0.719996 382.253 1.83463 378.272 4.06785L379.251 5.81214ZM391.292 2.72C395.701 2.72 399.706 3.75289 403.328 5.80956L404.315 4.07043C400.377 1.83377 396.029 0.719996 391.292 0.719996V2.72ZM403.34 5.81666C407.007 7.82892 409.885 10.6392 411.987 14.2619L413.717 13.2581C411.432 9.32076 408.289 6.25108 404.303 4.06333L403.34 5.81666ZM411.987 14.2619C414.084 17.876 415.142 21.9701 415.142 26.57H417.142C417.142 21.6499 416.006 17.204 413.717 13.2581L411.987 14.2619ZM415.142 26.57C415.142 31.1698 414.084 35.2893 411.984 38.9527L413.719 39.9473C416.006 35.9573 417.142 31.4902 417.142 26.57H415.142ZM411.987 38.9481C409.884 42.5727 407.004 45.4084 403.332 47.4679L404.311 49.2121C408.293 46.9783 411.433 43.8873 413.717 39.9519L411.987 38.9481ZM403.336 47.4658C399.713 49.4785 395.705 50.49 391.292 50.49V52.49C396.025 52.49 400.37 51.4015 404.307 49.2142L403.336 47.4658ZM391.292 45.56C394.667 45.56 397.712 44.8001 400.399 43.2573L399.404 41.5227C397.051 42.8733 394.356 43.56 391.292 43.56V45.56ZM400.411 43.2503C403.099 41.6575 405.187 39.4155 406.67 36.5494L404.893 35.6306C403.576 38.1779 401.744 40.1359 399.392 41.5297L400.411 43.2503ZM406.667 36.5551C408.2 33.6375 408.952 30.3001 408.952 26.57H406.952C406.952 30.0266 406.257 33.0358 404.896 35.6249L406.667 36.5551ZM408.952 26.57C408.952 22.8404 408.2 19.5233 406.663 16.6486L404.9 17.5914C406.257 20.1301 406.952 23.113 406.952 26.57H408.952ZM406.67 16.6606C405.186 13.792 403.094 11.5698 400.399 10.0227L399.404 11.7573C401.749 13.1035 403.577 15.0346 404.893 17.5794L406.67 16.6606ZM400.399 10.0227C397.712 8.47994 394.667 7.72 391.292 7.72V9.72C394.356 9.72 397.051 10.4067 399.404 11.7573L400.399 10.0227ZM391.292 7.72C387.916 7.72 384.871 8.47994 382.184 10.0227L383.179 11.7573C385.532 10.4067 388.227 9.72 391.292 9.72V7.72ZM382.184 10.0227C379.492 11.5681 377.379 13.7863 375.85 16.6486L377.613 17.5914C378.977 15.0403 380.831 13.1052 383.179 11.7573L382.184 10.0227ZM375.843 16.6606C374.358 19.5326 373.632 22.8454 373.632 26.57H375.632C375.632 23.108 376.305 20.1207 377.62 17.5794L375.843 16.6606ZM373.632 26.57C373.632 30.2951 374.358 33.6282 375.84 36.5432L377.623 35.6368C376.305 33.0451 375.632 30.0315 375.632 26.57H373.632ZM375.85 36.5614C377.378 39.4212 379.487 41.6592 382.172 43.2503L383.191 41.5297C380.836 40.1341 378.978 38.1721 377.613 35.6186L375.85 36.5614ZM382.184 43.2573C384.871 44.8001 387.916 45.56 391.292 45.56V43.56C388.227 43.56 385.532 42.8733 383.179 41.5227L382.184 43.2573ZM487.344 2.35L488.303 2.63418L488.684 1.35H487.344V2.35ZM472.924 51V52H473.671L473.883 51.2842L472.924 51ZM463.894 51L462.931 51.2675L463.134 52H463.894V51ZM453.674 14.18L454.638 13.9125L453.703 10.5446L452.715 13.8973L453.674 14.18ZM442.824 51L442.832 52L443.574 51.9942L443.783 51.2827L442.824 51ZM433.864 51.07L432.902 51.3423L433.11 52.0759L433.872 52.07L433.864 51.07ZM420.074 2.35V1.35H418.752L419.112 2.62234L420.074 2.35ZM428.544 2.35L429.513 2.10343L429.322 1.35H428.544V2.35ZM438.624 41.97L437.655 42.2166L438.585 45.8738L439.588 42.2357L438.624 41.97ZM449.544 2.35V1.35H448.782L448.58 2.08429L449.544 2.35ZM458.504 2.35L459.473 2.10059L459.279 1.35H458.504V2.35ZM468.654 41.76L467.686 42.0094L469.623 42.0094L468.654 41.76ZM478.804 2.35V1.35H478.029L477.836 2.10059L478.804 2.35ZM486.385 2.06581L471.965 50.7158L473.883 51.2842L488.303 2.63418L486.385 2.06581ZM472.924 50H463.894V52H472.924V50ZM464.858 50.7325L454.638 13.9125L452.711 14.4475L462.931 51.2675L464.858 50.7325ZM452.715 13.8973L441.865 50.7173L443.783 51.2827L454.633 14.4627L452.715 13.8973ZM442.816 50L433.856 50.07L433.872 52.07L442.832 52L442.816 50ZM434.826 50.7977L421.036 2.07765L419.112 2.62234L432.902 51.3423L434.826 50.7977ZM420.074 3.35H428.544V1.35H420.074V3.35ZM427.575 2.59656L437.655 42.2166L439.593 41.7234L429.513 2.10343L427.575 2.59656ZM439.588 42.2357L450.508 2.61571L448.58 2.08429L437.66 41.7043L439.588 42.2357ZM449.544 3.35H458.504V1.35H449.544V3.35ZM457.536 2.59941L467.686 42.0094L469.623 41.5106L459.473 2.10059L457.536 2.59941ZM469.623 42.0094L479.773 2.59941L477.836 2.10059L467.686 41.5106L469.623 42.0094ZM478.804 3.35H487.344V1.35H478.804V3.35ZM533.896 51V52H534.896V51H533.896ZM525.916 51L525.082 51.5514L525.378 52H525.916V51ZM501.906 14.67L502.74 14.1186L500.906 11.3432V14.67H501.906ZM501.906 51V52H502.906V51H501.906ZM493.926 51H492.926V52H493.926V51ZM493.926 2.28V1.28H492.926V2.28H493.926ZM501.906 2.28L502.74 1.7279L502.443 1.28H501.906V2.28ZM525.916 38.54L525.082 39.0921L526.916 41.8615V38.54H525.916ZM525.916 2.28V1.28H524.916V2.28H525.916ZM533.896 2.28H534.896V1.28H533.896V2.28ZM533.896 50H525.916V52H533.896V50ZM526.75 50.4486L502.74 14.1186L501.072 15.2214L525.082 51.5514L526.75 50.4486ZM500.906 14.67V51H502.906V14.67H500.906ZM501.906 50H493.926V52H501.906V50ZM494.926 51V2.28H492.926V51H494.926ZM493.926 3.28H501.906V1.28H493.926V3.28ZM501.072 2.83209L525.082 39.0921L526.75 37.9879L502.74 1.7279L501.072 2.83209ZM526.916 38.54V2.28H524.916V38.54H526.916ZM525.916 3.28H533.896V1.28H525.916V3.28ZM532.896 2.28V51H534.896V2.28H532.896ZM35.58 118.06L36.5232 117.728L36.2881 117.06H35.58V118.06ZM15.21 118.06V117.06H14.5019L14.2668 117.728L15.21 118.06ZM11.71 128V129H12.4181L12.6532 128.332L11.71 128ZM3.38 128L2.43844 127.663L1.96017 129H3.38V128ZM20.81 79.28V78.28H20.1057L19.8684 78.9431L20.81 79.28ZM30.05 79.28L30.9916 78.9431L30.7543 78.28H30.05V79.28ZM47.48 128V129H48.8998L48.4216 127.663L47.48 128ZM39.08 128L38.1368 128.332L38.3719 129H39.08V128ZM33.34 111.55V112.55H34.7493L34.2839 111.22L33.34 111.55ZM25.43 88.94L26.3739 88.6098L25.4342 85.9236L24.487 88.6072L25.43 88.94ZM17.45 111.55L16.507 111.217L16.0366 112.55H17.45V111.55ZM35.58 117.06H15.21V119.06H35.58V117.06ZM14.2668 117.728L10.7668 127.668L12.6532 128.332L16.1532 118.392L14.2668 117.728ZM11.71 127H3.38V129H11.71V127ZM4.32156 128.337L21.7516 79.6168L19.8684 78.9431L2.43844 127.663L4.32156 128.337ZM20.81 80.28H30.05V78.28H20.81V80.28ZM29.1084 79.6168L46.5384 128.337L48.4216 127.663L30.9916 78.9431L29.1084 79.6168ZM47.48 127H39.08V129H47.48V127ZM40.0232 127.668L36.5232 117.728L34.6368 118.392L38.1368 128.332L40.0232 127.668ZM34.2839 111.22L26.3739 88.6098L24.4861 89.2702L32.3961 111.88L34.2839 111.22ZM24.487 88.6072L16.507 111.217L18.393 111.883L26.373 89.2728L24.487 88.6072ZM17.45 112.55H33.34V110.55H17.45V112.55ZM95.0286 128V129H96.0286V128H95.0286ZM87.0486 128L86.2143 128.551L86.5108 129H87.0486V128ZM63.0386 91.67L63.8729 91.1186L62.0386 88.3432V91.67H63.0386ZM63.0386 128V129H64.0386V128H63.0386ZM55.0586 128H54.0586V129H55.0586V128ZM55.0586 79.28V78.28H54.0586V79.28H55.0586ZM63.0386 79.28L63.8724 78.7279L63.5758 78.28H63.0386V79.28ZM87.0486 115.54L86.2148 116.092L88.0486 118.861V115.54H87.0486ZM87.0486 79.28V78.28H86.0486V79.28H87.0486ZM95.0286 79.28H96.0286V78.28H95.0286V79.28ZM95.0286 127H87.0486V129H95.0286V127ZM87.8829 127.449L63.8729 91.1186L62.2043 92.2214L86.2143 128.551L87.8829 127.449ZM62.0386 91.67V128H64.0386V91.67H62.0386ZM63.0386 127H55.0586V129H63.0386V127ZM56.0586 128V79.28H54.0586V128H56.0586ZM55.0586 80.28H63.0386V78.28H55.0586V80.28ZM62.2048 79.8321L86.2148 116.092L87.8824 114.988L63.8724 78.7279L62.2048 79.8321ZM88.0486 115.54V79.28H86.0486V115.54H88.0486ZM87.0486 80.28H95.0286V78.28H87.0486V80.28ZM94.0286 79.28V128H96.0286V79.28H94.0286ZM134.978 82.36L134.518 83.2479L134.524 83.2512L134.531 83.2544L134.978 82.36ZM144.008 90.9L143.136 91.3903L143.14 91.3968L143.144 91.4032L144.008 90.9ZM144.008 116.73L143.146 116.222L143.142 116.23L144.008 116.73ZM134.978 125.13L135.421 126.027L135.425 126.024L134.978 125.13ZM105.508 128H104.508V129H105.508V128ZM105.508 79.35V78.35H104.508V79.35H105.508ZM134.488 116.87L133.775 116.168L133.775 116.168L134.488 116.87ZM134.488 90.62L133.765 91.311L134.488 90.62ZM113.488 85.86V84.86H112.488V85.86H113.488ZM113.488 121.49H112.488V122.49H113.488V121.49ZM121.398 80.35C126.448 80.35 130.811 81.3275 134.518 83.2479L135.438 81.4721C131.398 79.3792 126.708 78.35 121.398 78.35V80.35ZM134.531 83.2544C138.276 85.1273 141.137 87.8352 143.136 91.3903L144.879 90.4097C142.679 86.4981 139.519 83.5127 135.425 81.4656L134.531 83.2544ZM143.144 91.4032C145.188 94.9142 146.228 99.0516 146.228 103.85H148.228C148.228 98.7551 147.121 94.2592 144.872 90.3968L143.144 91.4032ZM146.228 103.85C146.228 108.649 145.188 112.76 143.146 116.222L144.869 117.238C147.121 113.42 148.228 108.945 148.228 103.85H146.228ZM143.142 116.23C141.144 119.693 138.283 122.359 134.531 124.236L135.425 126.024C139.512 123.981 142.672 121.047 144.874 117.23L143.142 116.23ZM134.535 124.233C130.824 126.066 126.454 127 121.398 127V129C126.701 129 131.385 128.02 135.421 126.027L134.535 124.233ZM121.398 127H105.508V129H121.398V127ZM106.508 128V79.35H104.508V128H106.508ZM105.508 80.35H121.398V78.35H105.508V80.35ZM121.398 122.49C127.271 122.49 131.925 120.897 135.2 117.572L133.775 116.168C130.984 119.003 126.912 120.49 121.398 120.49V122.49ZM135.2 117.572C138.468 114.254 140.038 109.632 140.038 103.85H138.038C138.038 109.268 136.575 113.326 133.775 116.168L135.2 117.572ZM140.038 103.85C140.038 98.0225 138.469 93.3373 135.211 89.929L133.765 91.311C136.574 94.2494 138.038 98.3842 138.038 103.85H140.038ZM135.211 89.929C131.937 86.5042 127.279 84.86 121.398 84.86V86.86C126.903 86.86 130.972 88.3891 133.765 91.311L135.211 89.929ZM121.398 84.86H113.488V86.86H121.398V84.86ZM112.488 85.86V121.49H114.488V85.86H112.488ZM113.488 122.49H121.398V120.49H113.488V122.49ZM198.59 128L197.724 128.499L198.012 129H198.59V128ZM187.39 108.54L188.257 108.041L187.969 107.54H187.39V108.54ZM181.3 108.54V107.54H180.3V108.54H181.3ZM181.3 128V129H182.3V128H181.3ZM173.32 128H172.32V129H173.32V128ZM173.32 79.35V78.35H172.32V79.35H173.32ZM199.57 81.31L199.117 82.2012L199.123 82.2044L199.57 81.31ZM205.38 86.56L204.513 87.0581L204.517 87.065L204.521 87.0718L205.38 86.56ZM204.54 102.59L203.727 102.009L203.725 102.012L204.54 102.59ZM196.07 107.84L195.833 106.868L194.517 107.19L195.212 108.353L196.07 107.84ZM208.11 128V129H209.872L208.969 127.487L208.11 128ZM181.3 102.17H180.3V103.17H181.3V102.17ZM196.84 99.93L196.144 99.2121L196.139 99.2175L196.133 99.2229L196.84 99.93ZM196.91 88.03L196.215 88.7482L196.22 88.7539L196.226 88.7595L196.91 88.03ZM181.3 85.86V84.86H180.3V85.86H181.3ZM199.457 127.501L188.257 108.041L186.524 109.039L197.724 128.499L199.457 127.501ZM187.39 107.54H181.3V109.54H187.39V107.54ZM180.3 108.54V128H182.3V108.54H180.3ZM181.3 127H173.32V129H181.3V127ZM174.32 128V79.35H172.32V128H174.32ZM173.32 80.35H190.12V78.35H173.32V80.35ZM190.12 80.35C193.741 80.35 196.726 80.984 199.117 82.2012L200.024 80.4188C197.281 79.0226 193.966 78.35 190.12 78.35V80.35ZM199.123 82.2044C201.589 83.4371 203.366 85.0606 204.513 87.0581L206.247 86.0619C204.875 83.6728 202.779 81.7962 200.018 80.4156L199.123 82.2044ZM204.521 87.0718C205.73 89.1009 206.34 91.3722 206.34 93.91H208.34C208.34 91.0344 207.644 88.4057 206.239 86.0482L204.521 87.0718ZM206.34 93.91C206.34 96.8722 205.474 99.5628 203.727 102.009L205.354 103.171C207.34 100.39 208.34 97.2944 208.34 93.91H206.34ZM203.725 102.012C202.076 104.336 199.487 105.977 195.833 106.868L196.307 108.812C200.307 107.836 203.364 105.977 205.356 103.168L203.725 102.012ZM195.212 108.353L207.252 128.513L208.969 127.487L196.929 107.327L195.212 108.353ZM208.11 127H198.59V129H208.11V127ZM181.3 103.17H190.12V101.17H181.3V103.17ZM190.12 103.17C193.261 103.17 195.8 102.384 197.547 100.637L196.133 99.2229C194.894 100.463 192.953 101.17 190.12 101.17V103.17ZM197.536 100.648C199.305 98.9333 200.15 96.6494 200.15 93.91H198.15C198.15 96.2106 197.456 97.94 196.144 99.2121L197.536 100.648ZM200.15 93.91C200.15 91.1821 199.334 88.9318 197.594 87.3005L196.226 88.7595C197.473 89.9282 198.15 91.5979 198.15 93.91H200.15ZM197.606 87.3118C195.856 85.616 193.295 84.86 190.12 84.86V86.86C193.012 86.86 194.978 87.5507 196.215 88.7482L197.606 87.3118ZM190.12 84.86H181.3V86.86H190.12V84.86ZM180.3 85.86V102.17H182.3V85.86H180.3ZM225.529 79.35H226.529V78.35H225.529V79.35ZM225.529 128V129H226.529V128H225.529ZM217.549 128H216.549V129H217.549V128ZM217.549 79.35V78.35H216.549V79.35H217.549ZM224.529 79.35V128H226.529V79.35H224.529ZM225.529 127H217.549V129H225.529V127ZM218.549 128V79.35H216.549V128H218.549ZM217.549 80.35H225.529V78.35H217.549V80.35ZM265.476 82.36L265.016 83.2479L265.022 83.2512L265.029 83.2544L265.476 82.36ZM274.506 90.9L273.634 91.3903L273.638 91.3968L273.642 91.4032L274.506 90.9ZM274.506 116.73L273.644 116.222L273.64 116.23L274.506 116.73ZM265.476 125.13L265.919 126.027L265.923 126.024L265.476 125.13ZM236.006 128H235.006V129H236.006V128ZM236.006 79.35V78.35H235.006V79.35H236.006ZM264.986 116.87L264.273 116.168L264.273 116.168L264.986 116.87ZM264.986 90.62L264.263 91.311L264.986 90.62ZM243.986 85.86V84.86H242.986V85.86H243.986ZM243.986 121.49H242.986V122.49H243.986V121.49ZM251.896 80.35C256.946 80.35 261.309 81.3275 265.016 83.2479L265.936 81.4721C261.896 79.3792 257.206 78.35 251.896 78.35V80.35ZM265.029 83.2544C268.774 85.1273 271.635 87.8352 273.634 91.3903L275.377 90.4097C273.177 86.4981 270.017 83.5127 265.923 81.4656L265.029 83.2544ZM273.642 91.4032C275.686 94.9142 276.726 99.0516 276.726 103.85H278.726C278.726 98.7551 277.619 94.2592 275.37 90.3968L273.642 91.4032ZM276.726 103.85C276.726 108.649 275.686 112.76 273.644 116.222L275.367 117.238C277.619 113.42 278.726 108.945 278.726 103.85H276.726ZM273.64 116.23C271.642 119.693 268.781 122.359 265.029 124.236L265.923 126.024C270.01 123.981 273.17 121.047 275.372 117.23L273.64 116.23ZM265.033 124.233C261.322 126.066 256.952 127 251.896 127V129C257.199 129 261.883 128.02 265.919 126.027L265.033 124.233ZM251.896 127H236.006V129H251.896V127ZM237.006 128V79.35H235.006V128H237.006ZM236.006 80.35H251.896V78.35H236.006V80.35ZM251.896 122.49C257.769 122.49 262.423 120.897 265.698 117.572L264.273 116.168C261.482 119.003 257.41 120.49 251.896 120.49V122.49ZM265.698 117.572C268.966 114.254 270.536 109.632 270.536 103.85H268.536C268.536 109.268 267.073 113.326 264.273 116.168L265.698 117.572ZM270.536 103.85C270.536 98.0225 268.967 93.3373 265.709 89.929L264.263 91.311C267.072 94.2494 268.536 98.3842 268.536 103.85H270.536ZM265.709 89.929C262.435 86.5042 257.777 84.86 251.896 84.86V86.86C257.401 86.86 261.47 88.3891 264.263 91.311L265.709 89.929ZM251.896 84.86H243.986V86.86H251.896V84.86ZM242.986 85.86V121.49H244.986V85.86H242.986ZM243.986 122.49H251.896V120.49H243.986V122.49ZM293.615 85.79V84.79H292.615V85.79H293.615ZM293.615 100.07H292.615V101.07H293.615V100.07ZM310.415 100.07H311.415V99.07H310.415V100.07ZM310.415 106.58V107.58H311.415V106.58H310.415ZM293.615 106.58V105.58H292.615V106.58H293.615ZM293.615 121.49H292.615V122.49H293.615V121.49ZM312.515 121.49H313.515V120.49H312.515V121.49ZM312.515 128V129H313.515V128H312.515ZM285.635 128H284.635V129H285.635V128ZM285.635 79.28V78.28H284.635V79.28H285.635ZM312.515 79.28H313.515V78.28H312.515V79.28ZM312.515 85.79V86.79H313.515V85.79H312.515ZM292.615 85.79V100.07H294.615V85.79H292.615ZM293.615 101.07H310.415V99.07H293.615V101.07ZM309.415 100.07V106.58H311.415V100.07H309.415ZM310.415 105.58H293.615V107.58H310.415V105.58ZM292.615 106.58V121.49H294.615V106.58H292.615ZM293.615 122.49H312.515V120.49H293.615V122.49ZM311.515 121.49V128H313.515V121.49H311.515ZM312.515 127H285.635V129H312.515V127ZM286.635 128V79.28H284.635V128H286.635ZM285.635 80.28H312.515V78.28H285.635V80.28ZM311.515 79.28V85.79H313.515V79.28H311.515ZM312.515 84.79H293.615V86.79H312.515V84.79ZM321.924 127.02L322.631 126.313L322.631 126.313L321.924 127.02ZM321.924 119.74L322.631 120.447L322.631 120.447L321.924 119.74ZM329.134 119.74L328.427 120.447L329.134 119.74ZM329.134 127.02L328.427 126.313L328.427 126.313L329.134 127.02ZM325.564 127.49C324.369 127.49 323.414 127.096 322.631 126.313L321.217 127.727C322.393 128.904 323.865 129.49 325.564 129.49V127.49ZM322.631 126.313C321.847 125.529 321.454 124.574 321.454 123.38H319.454C319.454 125.079 320.04 126.551 321.217 127.727L322.631 126.313ZM321.454 123.38C321.454 122.186 321.847 121.231 322.631 120.447L321.217 119.033C320.04 120.209 319.454 121.681 319.454 123.38H321.454ZM322.631 120.447C323.414 119.664 324.369 119.27 325.564 119.27V117.27C323.865 117.27 322.393 117.856 321.217 119.033L322.631 120.447ZM325.564 119.27C326.702 119.27 327.636 119.657 328.427 120.447L329.841 119.033C328.671 117.863 327.226 117.27 325.564 117.27V119.27ZM328.427 120.447C329.21 121.231 329.604 122.186 329.604 123.38H331.604C331.604 121.681 331.017 120.209 329.841 119.033L328.427 120.447ZM329.604 123.38C329.604 124.574 329.21 125.529 328.427 126.313L329.841 127.727C331.017 126.551 331.604 125.079 331.604 123.38H329.604ZM328.427 126.313C327.636 127.103 326.702 127.49 325.564 127.49V129.49C327.226 129.49 328.671 128.897 329.841 127.727L328.427 126.313Z" fill="black"/>
</svg>
