<?xml version="1.0" encoding="UTF-8"?>
<svg width="24px" height="24px" viewBox="0 0 24 24" version="1.1" xmlns="http://www.w3.org/2000/svg" xmlns:xlink="http://www.w3.org/1999/xlink">
    <!-- Generator: Sketch 62 (91390) - https://sketch.com -->
    <title>icon_24_iconsocial_youtube_n100</title>
    <desc>Created with Sketch.</desc>
    <g id="Symbols" stroke="none" stroke-width="1" fill="none" fill-rule="evenodd">
        <g id="icon_24_iconsocial_youtube_n100">
            <rect id="boundingBox" fill="#FFFFFF" opacity="0" x="0" y="0" width="24" height="24"></rect>
            <g id="icon" transform="translate(3.000000, 6.000000)" fill="#222222">
                <path d="M9.2699061,0.000816122213 C10.4081081,0.00620252882 14.8134671,0.047139219 16.032375,0.358258065 C16.8069886,0.555387097 17.4168409,1.13622581 17.6238409,1.87383871 C18,3.21067742 18,6 18,6 C18,6 18,8.78922581 17.6238409,10.1262581 C17.4168409,10.8637742 16.8069886,11.4446129 16.032375,11.6418387 C14.6287841,12 9,12 9,12 C9,12 3.37121591,12 1.96752273,11.6418387 C1.19301136,11.4446129 0.583056818,10.8637742 0.376056818,10.1262581 C0.0402918019,8.93247926 0.00431697878,6.58102066 0.000462533441,6.09084076 L0.000462533441,5.90915638 C0.00431697878,5.41896194 0.0402918019,3.0674447 0.376056818,1.87383871 C0.583056818,1.13622581 1.19301136,0.555387097 1.96752273,0.358258065 C3.18651944,0.047139219 7.59189011,0.00620252882 8.73009367,0.000816122213 Z M7.15906023,3.46752581 L7.15906023,8.53249355 L11.8636057,6.00010645 L7.15906023,3.46752581 Z" id="Combined-Shape"></path>
            </g>
        </g>
    </g>
</svg>