<?xml version="1.0" encoding="UTF-8"?>
<svg width="24px" height="24px" viewBox="0 0 24 24" version="1.1" xmlns="http://www.w3.org/2000/svg" xmlns:xlink="http://www.w3.org/1999/xlink">
    <!-- Generator: Sketch 62 (91390) - https://sketch.com -->
    <title>icon_24_icondate_n100</title>
    <desc>Created with Sketch.</desc>
    <g id="Symbols" stroke="none" stroke-width="1" fill="none" fill-rule="evenodd">
        <g id="icon_24_icondate_n100">
            <rect id="boundingBox" fill="#FFFFFF" opacity="0" x="0" y="0" width="24" height="24"></rect>
            <g id="icon" transform="translate(4.000000, 3.000000)">
                <path d="M1,1 L15,1 C15.5522847,1 16,1.44771525 16,2 L16,5 L16,5 L0,5 L0,2 C-6.76353751e-17,1.44771525 0.44771525,1 1,1 Z" id="Rectangle" stroke="#222222" stroke-width="1.5" stroke-linecap="round" stroke-linejoin="round"></path>
                <path d="M0,5 L16,5 L16,16 C16,16.5522847 15.5522847,17 15,17 L1,17 C0.44771525,17 6.76353751e-17,16.5522847 0,16 L0,5 L0,5 Z" id="Rectangle" stroke="#222222" stroke-width="1.5" stroke-linecap="round" stroke-linejoin="round"></path>
                <circle id="Oval" fill="#222222" cx="4" cy="9" r="1"></circle>
                <circle id="Oval" fill="#222222" cx="8" cy="9" r="1"></circle>
                <circle id="Oval" fill="#222222" cx="12" cy="9" r="1"></circle>
                <circle id="Oval" fill="#222222" cx="4" cy="13" r="1"></circle>
                <circle id="Oval" fill="#222222" cx="8" cy="13" r="1"></circle>
                <line x1="4" y1="2.00170898" x2="4" y2="0.00170898438" id="Line" stroke="#222222" stroke-width="1.5" stroke-linecap="round" stroke-linejoin="round"></line>
                <line x1="12" y1="2.00170898" x2="12" y2="0.00170898438" id="Line" stroke="#222222" stroke-width="1.5" stroke-linecap="round" stroke-linejoin="round"></line>
            </g>
        </g>
    </g>
</svg>