<?xml version="1.0" encoding="UTF-8"?>
<svg width="24px" height="24px" viewBox="0 0 24 24" version="1.1" xmlns="http://www.w3.org/2000/svg" xmlns:xlink="http://www.w3.org/1999/xlink">
    <!-- Generator: Sketch 62 (91390) - https://sketch.com -->
    <title>icon_24_iconsettings_n100</title>
    <desc>Created with Sketch.</desc>
    <g id="Symbols" stroke="none" stroke-width="1" fill="none" fill-rule="evenodd">
        <g id="icon_24_iconsettings_n100">
            <polygon id="boundingBox" fill="#FFFFFF" opacity="0" points="24 0 0 0 0 24 24 24 24 0"></polygon>
            <g id="icon" stroke="#222222" stroke-linecap="round" stroke-linejoin="round" stroke-width="1.5">
                <circle id="Oval" cx="12" cy="12" r="3"></circle>
                <path d="M12,3 C13.1045695,3 14,3.8954305 14,5 C14,5.09697653 13.9930979,5.19234099 13.9797582,5.28562895 C14.4600817,5.42527761 14.9186295,5.6166245 15.3496977,5.85198686 L15.4187012,5.76325374 L15.4187012,5.76325374 L15.5355339,5.63603897 C16.3165825,4.85499039 17.5829124,4.85499039 18.363961,5.63603897 C19.1450096,6.41708755 19.1450096,7.68341751 18.363961,8.46446609 C18.2955503,8.53287687 18.2234165,8.59529566 18.148212,8.65172245 C18.3833755,9.08137052 18.5747224,9.53991835 18.7160129,10.0199049 L18.8507377,10.0054857 L18.8507377,10.0054857 L19,10 C20.1045695,10 21,10.8954305 21,12 C21,13.1045695 20.1045695,14 19,14 C18.9030235,14 18.807659,13.9930979 18.7143711,13.9797582 C18.5747224,14.4600817 18.3833755,14.9186295 18.1480131,15.3496977 C18.2234165,15.4047043 18.2955503,15.4671231 18.363961,15.5355339 C19.1450096,16.3165825 19.1450096,17.5829124 18.363961,18.363961 C17.5829124,19.1450096 16.3165825,19.1450096 15.5355339,18.363961 C15.4671231,18.2955503 15.4047043,18.2234165 15.3482775,18.148212 C14.9186295,18.3833755 14.4600817,18.5747224 13.9800951,18.7160129 C13.9930979,18.807659 14,18.9030235 14,19 C14,20.1045695 13.1045695,21 12,21 C10.8954305,21 10,20.1045695 10,19 C10,18.9030235 10.0069021,18.807659 10.0202418,18.7143711 C9.53991835,18.5747224 9.08137052,18.3833755 8.65030231,18.1480131 L8.58129885,18.2367463 L8.58129885,18.2367463 L8.46446609,18.363961 C7.68341751,19.1450096 6.41708755,19.1450096 5.63603897,18.363961 C4.85499039,17.5829124 4.85499039,16.3165825 5.63603897,15.5355339 C5.70444974,15.4671231 5.77658346,15.4047043 5.85178796,15.3482775 C5.6166245,14.9186295 5.42527761,14.4600817 5.28398706,13.9800951 L5.14926234,13.9945143 L5.14926234,13.9945143 L5,14 C3.8954305,14 3,13.1045695 3,12 C3,10.8954305 3.8954305,10 5,10 C5.09697653,10 5.19234099,10.0069021 5.28562895,10.0202418 C5.42527761,9.53991835 5.6166245,9.08137052 5.85198686,8.65030231 C5.77658346,8.59529566 5.70444974,8.53287687 5.63603897,8.46446609 C4.85499039,7.68341751 4.85499039,6.41708755 5.63603897,5.63603897 C6.41708755,4.85499039 7.68341751,4.85499039 8.46446609,5.63603897 C8.53287687,5.70444974 8.59529566,5.77658346 8.65172245,5.85178796 C9.08137052,5.6166245 9.53991835,5.42527761 10.0199049,5.28398706 C10.0069021,5.19234099 10,5.09697653 10,5 C10,3.8954305 10.8954305,3 12,3 Z" id="Combined-Shape" transform="translate(12.000000, 12.000000) rotate(22.000000) translate(-12.000000, -12.000000) "></path>
            </g>
        </g>
    </g>
</svg>