<?xml version="1.0" encoding="UTF-8"?>
<svg width="24px" height="24px" viewBox="0 0 24 24" version="1.1" xmlns="http://www.w3.org/2000/svg" xmlns:xlink="http://www.w3.org/1999/xlink">
    <!-- Generator: Sketch 62 (91390) - https://sketch.com -->
    <title>icon_24_iconfile_n100</title>
    <desc>Created with Sketch.</desc>
    <g id="Symbols" stroke="none" stroke-width="1" fill="none" fill-rule="evenodd">
        <g id="icon_24_iconfile_n100">
            <rect id="boundingBox" fill="#FFFFFF" opacity="0" x="0" y="0" width="24" height="24"></rect>
            <g id="icon" transform="translate(6.000000, 4.000000)" stroke="#222222" stroke-linecap="round" stroke-linejoin="round" stroke-width="1.5">
                <path d="M1,0 L7.58578644,0 C7.85100293,-9.36897899e-16 8.10535684,0.10535684 8.29289322,0.292893219 L11.7071068,3.70710678 C11.8946432,3.89464316 12,4.14899707 12,4.41421356 L12,15 C12,15.5522847 11.5522847,16 11,16 L1,16 C0.44771525,16 6.76353751e-17,15.5522847 0,15 L0,1 C-6.76353751e-17,0.44771525 0.44771525,1.01453063e-16 1,0 Z" id="Rectangle"></path>
                <polyline id="Path-3" points="8 0.5 8 4 11.5 3.9979248"></polyline>
            </g>
        </g>
    </g>
</svg>