<svg width="44" height="44" viewBox="0 0 44 44" fill="none" xmlns="http://www.w3.org/2000/svg">
<path d="M21.9999 3.96389C27.8741 3.96389 28.5697 3.98632 30.8897 4.09214C33.0345 4.1901 34.1994 4.54853 34.9747 4.84971C36.0017 5.24884 36.7345 5.72564 37.5043 6.49547C38.2743 7.2653 38.7511 7.9979 39.1501 9.02491C39.4513 9.80024 39.8097 10.9651 39.9075 13.11C40.0133 15.43 40.0357 16.1256 40.0357 21.9999C40.0357 27.8743 40.0133 28.57 39.9075 30.8899C39.8097 33.0349 39.4512 34.1998 39.1501 34.9749C38.7511 36.0017 38.2743 36.7345 37.5043 37.5045C36.7345 38.2743 36.0017 38.7512 34.9747 39.1503C34.1994 39.4515 33.0345 39.8099 30.8897 39.9077C28.57 40.0137 27.8746 40.0359 21.9999 40.0359C16.1251 40.0359 15.4296 40.0137 13.11 39.9077C10.9651 39.8099 9.80018 39.4514 9.02485 39.1503C7.99806 38.7512 7.26508 38.2743 6.49525 37.5045C5.72547 36.7345 5.24879 36.0017 4.84966 34.9749C4.54848 34.1998 4.18988 33.0349 4.09209 30.8899C3.98627 28.57 3.96383 27.8743 3.96383 21.9999C3.96383 16.1256 3.98627 15.43 4.09209 13.11C4.18988 10.9651 4.54848 9.80024 4.84966 9.02491C5.24879 7.99795 5.72547 7.2653 6.49525 6.49547C7.26508 5.72564 7.99806 5.24884 9.02485 4.84971C9.80018 4.54853 10.9651 4.19004 13.11 4.09214C15.43 3.98632 16.1255 3.96389 21.9999 3.96389ZM21.9999 0C16.0249 0 15.2757 0.0252449 12.9293 0.132439C10.5876 0.239249 8.98838 0.611267 7.58908 1.15505C6.14237 1.71726 4.91549 2.46943 3.69252 3.69246C2.46949 4.91549 1.71709 6.14253 1.15505 7.58903C0.610937 8.98871 0.239084 10.5877 0.132274 12.9295C0.0251349 15.2761 0 16.0252 0 21.9999C0 27.9748 0.0251349 28.7239 0.132274 31.0703C0.239084 33.4122 0.610937 35.0112 1.15505 36.4108C1.71709 37.8574 2.46949 39.0843 3.69252 40.3075C4.91549 41.5305 6.14237 42.2827 7.58908 42.8449C8.98838 43.3887 10.5876 43.7605 12.9293 43.8676C15.2758 43.9745 16.025 44 21.9999 44C27.9747 44 28.7239 43.9745 31.0703 43.8676C33.4121 43.7606 35.0112 43.3887 36.4106 42.8449C37.8573 42.2827 39.0841 41.5306 40.3074 40.3075C41.5303 39.0843 42.2826 37.8574 42.8448 36.4108C43.3888 35.0113 43.7606 33.4122 43.8674 31.0703C43.9745 28.7239 43.9997 27.9748 43.9997 21.9999C43.9997 16.0251 43.9745 15.2761 43.8674 12.9295C43.7606 10.5878 43.3888 8.98872 42.8448 7.58908C42.2826 6.14259 41.5304 4.91555 40.3074 3.69252C39.0842 2.46949 37.8573 1.71726 36.4106 1.1551C35.0113 0.611322 33.4121 0.239304 31.0703 0.132494C28.7239 0.0252999 27.9747 0 21.9999 0Z" fill="white"/>
<path d="M21.9998 10.7028C15.7605 10.7028 10.7025 15.7606 10.7025 21.9999C10.7025 28.2391 15.7605 33.297 21.9998 33.297C28.2389 33.297 33.2969 28.2391 33.2969 21.9999C33.2969 15.7606 28.2389 10.7028 21.9998 10.7028ZM21.9998 29.3331C17.9497 29.3331 14.6664 26.05 14.6664 21.9999C14.6664 17.9497 17.9497 14.6666 21.9998 14.6666C26.0499 14.6666 29.333 17.9497 29.333 21.9999C29.333 26.05 26.0499 29.3331 21.9998 29.3331Z" fill="white"/>
<path d="M36.3834 10.2564C36.3834 11.7143 35.2015 12.8963 33.7433 12.8963C32.2853 12.8963 31.1034 11.7143 31.1034 10.2564C31.1034 8.79817 32.2853 7.61633 33.7433 7.61633C35.2015 7.61633 36.3834 8.79817 36.3834 10.2564Z" fill="white"/>
</svg>
