<svg width="565" height="204" viewBox="0 0 565 204" fill="none" xmlns="http://www.w3.org/2000/svg">
<path d="M341.509 99.7498H323.923V151.599H341.509V99.7498Z" fill="#00DD00"/>
<path d="M278.038 108.24C278.038 107.371 278.078 59.8287 278.117 51.2529H260.531C260.531 59.9077 260.531 108.28 260.531 108.517C260.571 119.938 265.116 130.885 273.217 138.947C274.126 139.856 275.035 140.725 276.023 141.516C284.045 148.234 293.807 151.633 305.03 151.633H315.147V134.086H303.845C289.618 134.046 278.078 122.507 278.038 108.24Z" fill="#00DD00"/>
<path d="M462.56 74.6876C456.553 68.404 448.926 65.8748 440.626 65.8748C432.09 65.8748 424.463 68.6411 418.614 74.6876C414.267 79.1928 411.738 84.8837 411.738 84.8837C411.738 84.8837 409.208 79.1533 404.861 74.6876C399.012 68.6016 391.385 65.8748 382.849 65.8748C374.55 65.8748 366.962 68.404 360.916 74.6876C354.434 81.485 351.194 91.2463 351.194 102.312C351.194 121.4 351.194 145.546 351.154 151.435H368.622C368.661 144.716 368.859 114.602 368.859 102.312C368.859 87.0968 377.158 81.6826 385.339 81.6826C387.157 81.6826 388.974 81.9987 390.713 82.5915C394.231 83.619 398.064 87.0572 399.763 89.8236C401.384 92.4714 402.451 95.5539 402.451 101.798V151.435H420.985V101.798C420.985 95.5539 422.052 92.5109 423.673 89.8236C425.372 87.0572 429.205 83.5795 432.723 82.5915C434.461 81.9987 436.279 81.6826 438.097 81.6826C446.278 81.6826 454.577 87.0968 454.577 102.312C454.577 114.563 454.774 144.716 454.814 151.435H472.282C472.282 145.546 472.242 121.439 472.242 102.312C472.282 91.2463 469.041 81.485 462.56 74.6876Z" fill="#00DD00"/>
<path d="M564.241 107.963C564.241 96.4234 559.933 87.2944 552.425 79.1928C544.837 70.9728 533.416 65.8748 521.6 65.8748C509.072 65.8748 498.283 70.6961 489.668 79.7856C481.922 87.9267 478.839 97.6485 478.839 109.623C478.839 121.597 483.582 132.939 492.118 140.606C501.089 148.629 510.376 152.778 523.813 152.778C535.273 152.778 547.248 148.352 555.27 142.503L543.928 131.122C538.316 135.034 531.005 137.484 524.287 137.484C514.605 137.484 503.658 131.319 499.152 123.139L564.044 111.717C564.123 110.611 564.241 109.07 564.241 107.963ZM497.295 106.698C497.493 93.8941 504.685 81.8802 521.758 81.8802C536.894 81.8802 543.968 91.9181 545.588 99.9011L497.295 108.437V106.698Z" fill="#00DD00"/>
<path d="M332.738 89.3159C322.186 89.3159 319.538 83.2299 319.538 77.539C319.538 71.8482 322.66 65.7622 332.738 65.7622C342.815 65.7622 345.937 71.8482 345.937 77.539C345.937 83.2299 343.289 89.3159 332.738 89.3159Z" fill="#00DD00"/>
<path d="M102.218 11.5397C152.092 11.5397 192.679 52.1263 192.679 102C192.679 151.874 152.092 192.46 102.218 192.46C52.3446 192.46 11.7975 151.874 11.7975 102C11.7975 52.1263 52.3446 11.5397 102.218 11.5397ZM102.218 0C45.8634 0 0.218262 45.6451 0.218262 102C0.218262 158.355 45.9029 204 102.218 204C158.534 204 204.258 158.355 204.258 102C204.258 45.6451 158.573 0 102.218 0Z" fill="#00DD00"/>
<path d="M102.22 115.197C109.509 115.197 115.419 109.287 115.419 101.997C115.419 94.7075 109.509 88.7979 102.22 88.7979C94.9297 88.7979 89.02 94.7075 89.02 101.997C89.02 109.287 94.9297 115.197 102.22 115.197Z" fill="#00DD00"/>
<path d="M124.588 82.4365L156.283 64.1785C161.578 61.096 163.357 54.3381 160.314 49.0425C159.839 48.2521 159.286 47.5408 158.654 46.869C148.576 36.5544 135.851 29.1642 121.901 25.5679C115.973 24.0267 109.926 27.5834 108.385 33.4718C108.148 34.3808 108.029 35.3292 108.029 36.2382V72.8333C108.029 78.9588 113.009 83.8988 119.134 83.8593C121.031 83.8988 122.928 83.385 124.588 82.4365Z" fill="#00DD00"/>
<path d="M96.4499 72.8747V36.2796C96.4499 30.1541 91.4704 25.2141 85.3844 25.2141C84.436 25.2141 83.527 25.3327 82.6181 25.5698C68.6281 29.1661 55.9028 36.5167 45.8253 46.8313C41.5572 51.218 41.6362 58.213 46.0229 62.4811C46.6947 63.1134 47.4061 63.6667 48.1965 64.1409L79.8517 82.4384C85.1473 85.4815 91.9052 83.6636 94.9482 78.3679C95.9362 76.7081 96.4499 74.8112 96.4499 72.8747Z" fill="#00DD00"/>
<path d="M130.354 111.602L162.049 129.899C167.345 132.942 174.102 131.124 177.145 125.829C177.62 125.038 177.975 124.208 178.213 123.339C182.085 109.389 182.085 94.6872 178.213 80.7368C176.553 74.8484 170.427 71.4497 164.539 73.1096C163.669 73.3467 162.839 73.7024 162.049 74.1766L130.354 92.4346C125.059 95.4776 123.241 102.275 126.284 107.531C127.272 109.23 128.655 110.614 130.354 111.602Z" fill="#00DD00"/>
<path d="M79.8897 121.562L48.2345 139.859C42.9389 142.902 41.121 149.7 44.2035 154.995C44.6778 155.786 45.231 156.497 45.8633 157.169C55.9408 167.483 68.6661 174.834 82.6561 178.43C88.584 179.972 94.6305 176.415 96.1718 170.526C96.4089 169.618 96.5274 168.669 96.5274 167.76V131.205C96.5274 125.079 91.548 120.139 85.462 120.139C83.4465 120.1 81.5495 120.613 79.8897 121.562Z" fill="#00DD00"/>
<path d="M74.1203 92.433L42.4256 74.1354C37.13 71.0924 30.3721 72.9103 27.3291 78.2059C26.8944 78.9963 26.5387 79.8262 26.2621 80.6956C22.3892 94.6461 22.3892 109.347 26.2621 123.298C27.9219 129.186 34.0475 132.585 39.9359 130.925C40.8053 130.688 41.6352 130.332 42.4256 129.858L74.1203 111.6C79.4159 108.557 81.2338 101.76 78.1908 96.5035C77.2028 94.8041 75.7801 93.3814 74.1203 92.433Z" fill="#00DD00"/>
<path d="M107.988 131.128V167.684C107.988 173.809 112.928 178.749 119.053 178.749C120.002 178.749 120.95 178.631 121.859 178.394C135.81 174.797 148.535 167.447 158.612 157.132C162.881 152.745 162.802 145.75 158.415 141.482C157.743 140.85 157.032 140.297 156.241 139.823L124.586 121.525C119.29 118.482 112.533 120.3 109.49 125.556C108.502 127.295 107.988 129.192 107.988 131.128Z" fill="#00DD00"/>
</svg>
