<svg width="44" height="44" viewBox="0 0 44 44" fill="none" xmlns="http://www.w3.org/2000/svg">
<path d="M23.5109 19.8459V19.7778C23.4968 19.8008 23.4817 19.8238 23.4667 19.8459H23.5109Z" fill="white"/>
<path d="M40.4907 -1.61982e-07H3.2298C1.44638 -1.61982e-07 -3.71208e-08 1.41188 -3.71208e-08 3.15196V40.8489C-3.71208e-08 42.5881 1.44638 44 3.2298 44H40.4907C42.2767 44 43.7231 42.5872 43.7231 40.8489V3.15196C43.7231 1.41099 42.2758 -1.61982e-07 40.4907 -1.61982e-07ZM13.2527 36.8336H6.64892V16.9655H13.2527V36.8336ZM9.95126 14.2515H9.90703C7.69191 14.2515 6.2588 12.7255 6.2588 10.8191C6.2588 8.87024 7.73614 7.38671 9.99461 7.38671C12.254 7.38671 13.6437 8.87024 13.688 10.8191C13.688 12.7255 12.2531 14.2515 9.95126 14.2515ZM37.0662 36.8336H30.4624V26.202C30.4624 23.5322 29.507 21.7098 27.1176 21.7098C25.2935 21.7098 24.2072 22.9386 23.7286 24.1258C23.5543 24.5495 23.5118 25.1422 23.5118 25.7367V36.8327H16.908C16.908 36.8327 16.9947 18.8268 16.908 16.9647H23.5118V19.7769C24.3894 18.4234 25.9587 16.4958 29.4646 16.4958C33.809 16.4958 37.0671 19.3364 37.0671 25.4395V36.8336H37.0662Z" fill="white"/>
</svg>
