<svg width="28" height="28" viewBox="0 0 28 28" fill="none" xmlns="http://www.w3.org/2000/svg">
<path d="M21.2537 8.8916C22.1816 8.8916 22.9337 8.17346 22.9337 7.2876C22.9337 6.40173 22.1816 5.68359 21.2537 5.68359C20.3259 5.68359 19.5737 6.40173 19.5737 7.2876C19.5737 8.17346 20.3259 8.8916 21.2537 8.8916Z" fill="black"/>
<path d="M14 20.8394C10.1395 20.8394 7 17.8409 7 14.1538C7 10.4667 10.1395 7.46826 14 7.46826C17.8605 7.46826 21 10.4667 21 14.1538C21 17.8409 17.8605 20.8394 14 20.8394ZM14 10.811C12.0697 10.811 10.5 12.3103 10.5 14.1538C10.5 15.9973 12.0697 17.4966 14 17.4966C15.9303 17.4966 17.5 15.9973 17.5 14.1538C17.5 12.3103 15.9303 10.811 14 10.811Z" fill="black"/>
<path d="M21 27.5254H7C3.402 27.5254 0 24.2762 0 20.8398V7.46875C0 4.03238 3.402 0.783203 7 0.783203H21C24.598 0.783203 28 4.03238 28 7.46875V20.8398C28 24.2762 24.598 27.5254 21 27.5254ZM7 4.12598C5.36375 4.12598 3.5 5.906 3.5 7.46875V20.8398C3.5 22.4327 5.33225 24.1826 7 24.1826H21C22.6362 24.1826 24.5 22.4026 24.5 20.8398V7.46875C24.5 5.906 22.6362 4.12598 21 4.12598H7Z" fill="black"/>
</svg>
