<svg width="103" height="99" viewBox="0 0 103 99" fill="none" xmlns="http://www.w3.org/2000/svg">
<g clip-path="url(#clip0)">
<path d="M0.5 53.9705C1.49882 50.5533 3.8161 47.7645 5.41422 44.6615C6.13337 43.2868 6.97239 41.9513 7.77145 40.5765L0.739718 36.6487L0.779671 36.413C2.5376 36.413 4.33549 36.4523 6.09342 36.413C11.9665 36.3345 17.8396 36.2166 23.7127 36.1381C23.9924 36.1381 24.2321 36.2559 24.3919 36.4916C28.1075 43.0511 31.7832 49.5713 35.4988 56.1308C35.5388 56.2094 35.5787 56.3272 35.5787 56.4058L28.3472 52.3208C27.7879 53.3028 27.2286 54.2062 26.6692 55.1096C23.3931 60.6479 20.1569 66.1862 16.9207 71.7244C15.4025 74.3168 14.5635 77.0663 14.8032 80.2479C14.1639 79.2266 13.6445 78.284 13.0852 77.3805C9.20975 70.8603 5.33431 64.3401 1.53878 57.7806C1.13925 56.9557 0.819624 56.1308 0.539953 55.2667V53.9705H0.5ZM13.6845 75.6523C13.7644 75.4559 13.8043 75.2988 13.8443 75.1809C14.3637 73.924 14.7233 72.6278 15.3625 71.4495C17.6398 67.4431 20.037 63.4759 22.3942 59.5088C23.8725 56.9557 25.3508 54.4419 26.869 51.8888C27.4683 50.9068 28.3472 50.7104 29.3461 51.2996C30.1052 51.7317 30.8643 52.1244 31.6234 52.5565C31.5834 52.2815 31.4636 52.0066 31.3038 51.7709C28.7468 47.2146 26.1498 42.6583 23.5928 38.0627C23.433 37.7092 23.0734 37.5128 22.7139 37.5521C17.2803 37.6699 11.8467 37.7485 6.453 37.827H6.01351C6.09342 37.9449 6.09342 37.9842 6.13337 37.9842C6.81257 38.3769 7.49177 38.7697 8.17098 39.1232C9.32961 39.7517 9.52938 40.5373 8.81022 41.6371C8.69036 41.8335 8.57051 42.0298 8.45065 42.187C6.5329 45.4864 4.61516 48.7858 2.65746 52.1244C1.69859 53.7741 1.61868 55.3846 2.61751 57.0343C3.57638 58.5661 4.45535 60.1373 5.37427 61.7084L12.0864 72.9028C12.6058 73.8062 13.1251 74.7096 13.6845 75.6523Z" fill="black"/>
<path d="M67.2216 90.5389V98.4732L67.1017 98.5518C67.0218 98.3947 66.902 98.2768 66.7821 98.1197C62.9866 91.8744 59.1511 85.5898 55.3556 79.3446C55.1159 79.0303 55.1159 78.5983 55.3556 78.284C59.1511 72.0387 62.9466 65.7934 66.7422 59.5874C66.8221 59.4303 66.9419 59.2732 67.1417 58.959V67.2075H90.0348C93.0312 67.2075 95.8679 66.6183 98.345 64.8508C98.3849 64.8508 98.4249 64.8508 98.5048 64.8508L95.1487 70.6247C91.9126 76.2023 88.6364 81.7798 85.4002 87.3574C84.1617 89.4784 82.3638 90.5389 79.8867 90.5389H67.2216ZM65.7833 64.2616L65.6634 64.2223C65.3039 64.8115 64.9443 65.4007 64.5847 65.9898C62.0677 70.1534 59.5506 74.3169 57.0336 78.4804C56.9137 78.6768 56.9137 78.9518 57.0336 79.1482C59.4707 83.1939 61.9079 87.2003 64.345 91.2067C64.7845 91.953 65.2639 92.6993 65.7034 93.4456C65.7833 92.6993 65.8233 91.953 65.8233 91.1674C65.8233 89.5963 66.3426 89.0856 67.9408 89.0856C71.8162 89.0856 75.7316 89.0856 79.607 89.0856C80.1264 89.0856 80.6458 89.0464 81.1652 88.9678C82.8033 88.6536 83.7222 87.5145 84.5213 86.179C87.4378 81.1121 90.3943 76.0844 93.3509 71.0568C93.9102 70.0748 94.5095 69.0929 95.1088 67.9931C94.8691 68.0323 94.7492 68.0323 94.6294 68.0716C93.8703 68.268 93.1111 68.3858 92.3121 68.4644C90.3144 68.543 88.3567 68.5822 86.3591 68.5822C80.1664 68.5822 74.0136 68.5822 67.8209 68.5822C66.3826 68.5822 65.8233 68.0323 65.8233 66.6576C65.7433 65.872 65.7433 65.0864 65.7833 64.2616Z" fill="black"/>
<path d="M53.917 30.4819L60.9088 26.554C60.0298 25.0615 59.1509 23.5689 58.3118 22.0763C55.3553 17.0094 52.3589 11.9031 49.4023 6.83621C47.9241 4.28311 45.9664 2.24062 43.0498 0.94443C43.2496 0.905151 43.4094 0.905151 43.6091 0.905151C52.239 0.905151 60.9088 0.905151 69.5386 0.905151C71.9758 0.905151 73.8536 1.84784 75.0921 4.00816C77.0498 7.38611 79.0874 10.6855 81.0451 14.0242L81.5245 14.8098L88.5163 10.7248C88.4364 10.9605 88.3565 11.1176 88.3165 11.2354C84.6808 17.5985 81.0851 24.0009 77.4493 30.3641C77.3295 30.6783 77.0098 30.8747 76.6902 30.8747C69.219 30.7568 61.7878 30.639 54.3165 30.5605C54.1967 30.5605 54.0369 30.5605 53.917 30.5605V30.4819ZM47.9241 2.35846C48.803 3.57609 49.7619 4.67589 50.4811 5.93281C52.0792 8.52519 53.5574 11.1569 55.0757 13.7492C56.474 16.1452 57.8724 18.5805 59.3107 20.9765C60.1896 22.4691 61.0287 24.0009 61.9476 25.4542C62.5868 26.5148 62.467 27.3396 61.3882 27.9681C60.709 28.3609 59.9899 28.7536 59.1109 29.225C59.4705 29.2643 59.6303 29.2643 59.8301 29.2643C65.1039 29.3428 70.4176 29.3821 75.6914 29.4999C76.1309 29.5392 76.5704 29.3035 76.7302 28.8715C77.4094 27.5753 78.1685 26.2791 78.8876 25.0222C80.7255 21.7621 82.5633 18.5019 84.4012 15.2418C84.4811 15.0847 84.521 14.9276 84.6409 14.6526C83.8418 15.124 83.2026 15.5168 82.5234 15.8703C81.6044 16.4202 80.6855 16.2238 80.1262 15.3204C78.9675 13.3957 77.8489 11.4711 76.6902 9.58571C75.6115 7.7789 74.5727 5.97208 73.454 4.20455C72.655 2.8298 71.2167 2.35846 69.6185 2.35846C62.5069 2.35846 55.3953 2.35846 48.2836 2.35846H47.9241Z" fill="black"/>
<path d="M48.3237 90.4995C48.1639 90.4995 48.0041 90.5388 47.8843 90.5388C41.4119 90.5388 34.9395 90.578 28.4271 90.5388C23.2333 90.4602 18.7985 86.9251 17.6398 81.9368C16.9207 78.873 17.6398 76.045 19.0382 73.374C20.077 71.3315 21.2756 69.3676 22.4342 67.4037C22.594 67.168 22.7938 67.0502 23.0734 67.0109C31.3837 66.9716 39.7338 66.9716 48.0441 67.0109C48.124 67.0109 48.2039 67.0109 48.3237 67.0502V90.4995ZM46.8854 68.4642C46.8455 68.4642 46.7656 68.4249 46.7256 68.4249C39.0946 68.4249 31.5035 68.4249 23.8725 68.4249C23.6328 68.4642 23.433 68.6213 23.3132 68.8177C22.3543 70.4281 21.4354 72.0386 20.5164 73.6883C19.238 76.045 18.5188 78.5195 18.9583 81.2297C19.6375 85.4326 23.7127 89.0462 28.0676 89.1247C34.2203 89.2033 40.3731 89.164 46.5259 89.164C46.6457 89.164 46.7656 89.164 46.8854 89.1247V68.4642Z" fill="black"/>
<path d="M37.9758 35.9416L17.2402 24.0795C18.0792 22.6262 18.9183 21.2122 19.7573 19.7982L27.0687 7.38614C28.7067 4.63664 31.024 2.71199 34.2203 2.16209C39.4141 1.21941 43.5693 2.90838 46.4858 7.2683C47.9241 9.42862 49.2026 11.6675 50.5211 13.9064C50.601 14.142 50.601 14.3777 50.4811 14.5741C48.0839 18.6984 45.6868 22.8226 43.2496 26.9076L38.2955 35.3917C38.1756 35.5881 38.0957 35.7453 37.9758 35.9416ZM37.4165 33.9777C37.5763 33.742 37.6962 33.5849 37.7761 33.4278C38.7749 31.6996 39.7737 29.9713 40.7725 28.243C43.4894 23.6475 46.1662 19.0519 48.883 14.4563C48.9629 14.2599 48.9629 14.0635 48.883 13.8671C47.7244 11.9032 46.5657 9.93924 45.3272 8.05387C42.8901 4.36169 39.3742 2.75127 34.8595 3.45828C31.863 3.92963 29.7455 5.65788 28.2673 8.21099C25.7902 12.4531 23.2731 16.6952 20.7561 20.9765L19.2379 23.5689L37.4165 33.9777Z" fill="black"/>
<path d="M70.2578 42.8154L90.9535 31.189C91.0733 31.3461 91.1932 31.5032 91.2731 31.621C94.4693 37.0022 97.6256 42.4226 100.822 47.8038C104.537 54.0491 101.022 60.7265 96.1873 63.2796C94.5492 64.1044 92.7114 64.5365 90.8736 64.5365C88.3965 64.5757 85.9194 64.5757 83.4423 64.5365C83.2026 64.4972 82.9629 64.3401 82.803 64.1437C79.1673 57.9769 75.5316 51.8495 71.9358 45.6828C71.4164 44.7794 70.8571 43.8367 70.2578 42.8154ZM72.2555 43.326L76.1309 49.9248C78.6479 54.2062 81.165 58.4876 83.6421 62.7689C83.7619 63.0439 84.0416 63.201 84.3612 63.201C86.5586 63.1617 88.7161 63.201 90.9135 63.1617C91.7126 63.1224 92.4717 63.0439 93.2707 62.8475C96.1873 62.219 98.2649 60.4515 99.7032 57.8984C100.782 56.013 101.181 53.8134 100.782 51.6924C100.502 50.1998 99.7831 48.9429 99.0639 47.686C96.7866 43.8367 94.5492 39.9874 92.2719 36.1381C91.6726 35.1168 91.0733 34.1349 90.474 33.0743L72.2555 43.326Z" fill="black"/>
<path d="M13.6846 75.6523C13.1252 74.7096 12.6059 73.8062 12.0865 72.9421L5.45427 61.7084C4.53535 60.1372 3.61643 58.5661 2.69751 57.0342C1.69869 55.3845 1.77859 53.7741 2.73747 52.1244C4.69516 48.825 6.57295 45.5256 8.53065 42.1869C8.65051 41.9906 8.77037 41.7942 8.89023 41.637C9.60938 40.5372 9.36966 39.7517 8.25098 39.1232C7.57178 38.7304 6.89258 38.3769 6.21338 37.9841C6.17342 37.9841 6.17342 37.9056 6.09352 37.827H6.533C11.9666 37.7485 17.4002 37.6306 22.7939 37.5521C23.1535 37.5128 23.553 37.7092 23.6728 38.0627C26.2298 42.619 28.7868 47.2146 31.3838 51.7709C31.5436 52.0066 31.6235 52.2815 31.7034 52.5565C30.9443 52.1244 30.1852 51.7316 29.4261 51.2996C28.4272 50.7104 27.5483 50.9068 26.949 51.8888C25.4308 54.4026 23.9525 56.9557 22.4742 59.5088C20.0771 63.4759 17.6799 67.4431 15.4026 71.4495C14.7234 72.6278 14.3638 73.924 13.8844 75.1809C13.8044 75.2988 13.7645 75.4166 13.6846 75.6523Z" fill="white"/>
<path d="M65.7433 64.2615C65.7433 65.0863 65.7433 65.8719 65.7433 66.6967C65.7433 68.1108 66.3027 68.6214 67.741 68.6214C73.9337 68.6214 80.0865 68.6214 86.2792 68.6214C88.2768 68.6214 90.2345 68.5821 92.2322 68.5036C93.0312 68.425 93.7903 68.3072 94.5494 68.1108C94.6693 68.0715 94.7892 68.0715 95.0289 68.0322C94.3896 69.0927 93.8303 70.114 93.2709 71.0959C90.3144 76.1236 87.3579 81.1513 84.4413 86.2182C83.6822 87.5537 82.7233 88.6927 81.0853 89.007C80.5659 89.0855 80.0465 89.1248 79.5271 89.1248C75.6517 89.1248 71.7363 89.1248 67.8608 89.1248C66.2627 89.1248 65.7433 89.6354 65.7433 91.2066C65.7433 91.9529 65.7034 92.6992 65.6235 93.4847C65.144 92.7384 64.7045 91.9921 64.2651 91.2458C61.8279 87.2394 59.3908 83.1937 56.9537 79.1873C56.8338 78.9909 56.8338 78.716 56.9537 78.5196C59.4707 74.3561 61.9877 70.1925 64.5048 66.029C64.8644 65.4398 65.2239 64.8507 65.5835 64.2615H65.7433Z" fill="white"/>
<path d="M47.9241 2.35852H48.3236C55.4352 2.35852 62.5469 2.35852 69.6185 2.35852C71.2167 2.35852 72.655 2.82986 73.5339 4.24389C74.6526 6.01143 75.6914 7.81824 76.7701 9.62505C77.9288 11.5497 79.0475 13.4744 80.2061 15.3597C80.7654 16.2631 81.6843 16.4595 82.6033 15.9096C83.2425 15.5168 83.9217 15.1241 84.7208 14.692C84.6009 14.9669 84.561 15.1241 84.4811 15.2812C82.6432 18.5413 80.8054 21.8014 78.9276 25.0615C78.2084 26.3577 77.4893 27.6146 76.7701 28.9108C76.6103 29.3036 76.2108 29.5786 75.7314 29.5393C70.4576 29.4607 65.1438 29.3822 59.87 29.3036C59.7102 29.3036 59.5104 29.3036 59.1509 29.2643C60.0298 28.793 60.709 28.4002 61.4282 28.0074C62.5069 27.379 62.6268 26.5541 61.9875 25.4936C61.0686 24.0403 60.2296 22.5084 59.3506 21.0158C57.9523 18.6198 56.5539 16.2238 55.1156 13.7886C53.5974 11.1569 52.1191 8.52525 50.521 5.97215C49.722 4.67596 48.803 3.53688 47.9241 2.35852Z" fill="white"/>
<path d="M46.8854 68.4643V89.0855C46.7656 89.0855 46.6457 89.1248 46.5259 89.1248C40.3731 89.1248 34.2203 89.1641 28.0676 89.0855C23.7527 89.0463 19.6775 85.3934 18.9583 81.1905C18.5188 78.4803 19.238 76.0058 20.5165 73.6491C21.3954 71.9994 22.3543 70.3889 23.3132 68.7785C23.433 68.5821 23.6328 68.425 23.8725 68.3857C31.5035 68.3857 39.0946 68.3857 46.7256 68.3857C46.8055 68.425 46.8455 68.425 46.8854 68.4643Z" fill="white"/>
<path d="M37.4167 34.0169L19.238 23.5688L20.7563 20.9372C23.2733 16.6951 25.7903 12.453 28.2674 8.21092C29.7457 5.65782 31.8632 3.92956 34.8597 3.45822C39.3344 2.79048 42.8902 4.36162 45.3673 8.09309C46.6058 9.97846 47.7645 11.9424 48.9231 13.9063C49.003 14.1027 49.003 14.2991 48.9231 14.4955C46.2063 19.0911 43.4895 23.6867 40.7727 28.2823C39.7739 30.0105 38.7751 31.7388 37.7762 33.467C37.6963 33.5849 37.5765 33.7813 37.4167 34.0169Z" fill="white"/>
<path d="M72.2554 43.3261L90.4739 33.1136C91.0732 34.1349 91.7125 35.1561 92.2718 36.1774C94.5491 40.0267 96.7865 43.876 99.0638 47.7253C99.8229 48.9822 100.542 50.2784 100.782 51.7317C101.181 53.8527 100.782 56.0523 99.6631 57.9377C98.2248 60.4908 96.1473 62.2191 93.2307 62.8868C92.4716 63.0439 91.6725 63.1617 90.8735 63.201C88.676 63.2403 86.4786 63.201 84.3212 63.2403C84.0015 63.2796 83.7219 63.0832 83.602 62.8082C81.085 58.5269 78.6079 54.2455 76.0909 49.9641L72.2554 43.3261Z" fill="white"/>
</g>
<defs>
<clipPath id="clip0">
<rect width="102" height="98" fill="white" transform="translate(0.5 0.787354)"/>
</clipPath>
</defs>
</svg>
