<svg width="14" height="18" viewBox="0 0 14 18" fill="none" xmlns="http://www.w3.org/2000/svg">
<path d="M10.851 1.51603C9.61326 0.494908 8.04724 -0.0427797 6.44331 0.00266177C4.83937 0.0481032 3.30631 0.673591 2.12837 1.76316C0.950436 2.85272 0.20753 4.33245 0.0373946 5.92798C-0.132741 7.52352 0.281435 9.12663 1.20313 10.4401L6.07615 17.3839C6.13864 17.4731 6.22168 17.5458 6.31826 17.5961C6.41483 17.6464 6.52209 17.6726 6.63096 17.6726C6.73982 17.6726 6.84709 17.6464 6.94368 17.5962C7.04028 17.546 7.12335 17.4732 7.18587 17.3841L12.0591 10.4401C13.0106 9.07112 13.4144 7.39519 13.1907 5.74309C12.9671 4.09098 12.1322 2.58274 10.851 1.51603ZM11.2554 9.87612L6.6311 16.4656L2.00699 9.87612C1.41305 9.02975 1.06277 8.03661 0.99434 7.00491C0.925907 5.9732 1.14194 4.9425 1.6189 4.0251C2.09585 3.1077 2.81544 2.3388 3.69926 1.80217C4.58308 1.26554 5.59722 0.98177 6.6312 0.98177C7.66517 0.98177 8.67932 1.26554 9.56314 1.80217C10.447 2.3388 11.1665 3.1077 11.6435 4.0251C12.1205 4.9425 12.3365 5.9732 12.2681 7.00491C12.1996 8.03661 11.8494 9.02975 11.2554 9.87612H11.2554Z" fill="white"/>
<path d="M6.63194 3.15234C5.94798 3.15235 5.27939 3.35518 4.71071 3.73517C4.14202 4.11516 3.69879 4.65525 3.43706 5.28715C3.17532 5.91904 3.10684 6.61436 3.24028 7.28517C3.37372 7.95598 3.70307 8.57216 4.1867 9.05579C4.67033 9.53942 5.28651 9.86878 5.95732 10.0022C6.62814 10.1356 7.32345 10.0672 7.95535 9.80543C8.58724 9.5437 9.12733 9.10047 9.50732 8.53178C9.88731 7.9631 10.0901 7.2945 10.0901 6.61055C10.0891 5.69369 9.72443 4.81469 9.07612 4.16637C8.4278 3.51806 7.5488 3.15338 6.63194 3.15234ZM6.63194 9.08685C6.14216 9.08684 5.66339 8.94159 5.25616 8.66948C4.84893 8.39737 4.53154 8.01061 4.34412 7.55811C4.1567 7.10561 4.10767 6.6077 4.20323 6.12734C4.29879 5.64698 4.53465 5.20574 4.88098 4.85942C5.22731 4.51311 5.66856 4.27727 6.14893 4.18173C6.62929 4.08619 7.1272 4.13524 7.57969 4.32267C8.03218 4.51011 8.41893 4.82752 8.69102 5.23476C8.96312 5.642 9.10834 6.12078 9.10833 6.61056C9.10758 7.2671 8.84643 7.89653 8.38218 8.36076C7.91792 8.825 7.28848 9.08612 6.63194 9.08685Z" fill="white"/>
</svg>
