<svg width="98" height="143" viewBox="0 0 98 143" fill="none" xmlns="http://www.w3.org/2000/svg">
<g clip-path="url(#clip0)">
<path d="M16.7577 79.7445L17.0331 76.8787C16.3048 76.8327 15.6041 76.7468 14.8912 76.7468C13.1563 76.7468 11.4214 76.799 9.68951 76.8112C9.47269 76.7987 9.26239 76.7323 9.07754 76.6179C8.46558 76.7683 7.90869 76.7529 7.43442 76.259C7.17018 76.0005 6.98645 75.6708 6.90552 75.3096C6.82459 74.9485 6.84994 74.5716 6.9785 74.2247C7.12231 73.7645 7.33344 73.3257 7.49867 72.9176C6.6358 72.7734 5.76069 72.6537 4.89782 72.4696C4.09921 72.2978 3.79017 71.856 3.77793 71.0736C3.77793 70.061 3.99824 69.6959 4.83357 69.4413C6.16748 69.0755 7.56251 68.9908 8.93067 69.1927C9.40188 69.2449 9.87309 69.3185 10.3443 69.3707C10.4485 69.3819 10.5539 69.366 10.6503 69.3247C11.4795 68.9319 12.376 68.8491 13.2664 68.711C13.7852 68.6283 14.2967 68.5052 14.7963 68.3428C15.247 68.1692 15.6235 67.8437 15.8612 67.4223C16.4731 66.4589 17.1371 65.52 17.7736 64.5688C17.8601 64.4522 17.9359 64.3279 18 64.1976C19.065 61.7108 20.3512 59.3253 21.8431 57.07C21.9844 56.8704 22.081 56.6427 22.1264 56.4023C22.1719 56.1619 22.165 55.9145 22.1063 55.677C21.7666 54.1428 21.4392 52.6332 21.0935 51.1114C21.0591 50.9602 20.9828 50.8219 20.8732 50.7125C18.9883 49.0556 17.9633 46.9447 17.59 44.49C17.3882 43.0313 17.3482 41.5546 17.4706 40.0871C17.7552 35.9449 18.615 31.8948 19.3953 27.8293C19.4595 27.4918 19.4871 27.1481 19.5819 26.8229C19.6247 26.69 19.6309 26.5479 19.5996 26.4117C19.5684 26.2756 19.5009 26.1505 19.4044 26.0497C19.1701 25.7481 18.8417 25.5341 18.4717 25.4417C18.1017 25.3494 17.7115 25.3841 17.3635 25.5404C17.1402 25.6386 16.929 25.7613 16.7118 25.8717C16.3037 26.0954 15.8453 26.2104 15.3802 26.2055C14.9152 26.2007 14.4592 26.0763 14.0559 25.8441C12.6759 25.0985 11.7977 23.8958 11.1215 22.5212C10.9471 22.1254 10.7941 21.7142 10.6166 21.3246C10.5355 21.0797 10.3907 20.8609 10.197 20.691C10.0033 20.5211 9.76792 20.4061 9.5151 20.3581C9.30205 20.3126 9.09617 20.2383 8.90313 20.1371C8.66668 20.0381 8.47908 19.8491 8.38155 19.6115C8.28402 19.3739 8.28452 19.1072 8.38296 18.8699C8.40748 18.8106 8.43825 18.754 8.47476 18.7012C8.5369 18.5678 8.62182 18.4463 8.72566 18.3422C9.39576 17.7868 9.41412 17.0566 9.33763 16.268C9.22135 14.9763 9.14792 13.6784 9.05918 12.3836C9.05612 12.3469 9.05612 12.3099 9.05918 12.2732C9.08366 11.6043 9.08366 11.6104 8.37072 11.5398C8.03414 11.5061 7.70062 11.4539 7.3671 11.3864C7.20762 11.3551 7.06567 11.2649 6.96935 11.1336C6.87302 11.0024 6.82933 10.8397 6.84693 10.6776C6.84345 9.56834 7.05871 8.46928 7.48031 7.44369C7.93567 6.28019 8.52185 5.17255 9.22747 4.14222C9.83987 3.17514 10.6215 2.32695 11.5346 1.63851C12.6731 0.816426 14.0024 0.299938 15.3961 0.138124C17.0158 -0.0768464 18.6589 -0.0395876 20.2673 0.248582C21.1603 0.370591 22.043 0.559303 22.9079 0.813145C24.1312 1.19863 25.3058 1.72476 26.4084 2.38103C27.267 2.89582 28.0402 3.54179 28.7002 4.29564C29.4829 5.28532 29.9784 6.47226 30.1322 7.72597C30.3464 9.11283 30.5422 10.5089 30.6279 11.908C30.6428 12.8616 30.5917 13.8151 30.4749 14.7615C30.4412 15.234 30.3555 15.7035 30.2882 16.1944C31.1646 16.455 31.9838 16.8798 32.7024 17.4463C34.5842 19.008 35.1503 21.073 34.2813 23.365C33.7765 24.8202 32.8639 26.0986 31.6529 27.0469C31.2161 27.3392 30.7613 27.6036 30.2913 27.8385C30.7013 27.995 31.1725 28.1453 31.6193 28.354C33.8131 29.3512 35.3767 31.0234 36.6068 33.0546C37.7664 34.9692 38.5773 37.0433 39.3606 39.1236C40.5386 42.1919 41.8788 45.1957 43.6994 47.9572C44.9383 49.7816 46.3852 51.4549 48.0107 52.9431C50.9382 55.6401 53.3863 58.8172 55.2503 62.3382C56.6208 64.9456 57.6492 67.7199 58.3101 70.5919C58.3437 70.7422 58.5029 70.8588 58.5916 70.9969C58.6801 71.1244 58.7502 71.2638 58.7997 71.4111C59.3562 73.5731 59.5281 75.8166 59.3076 78.0386C59.2005 79.0511 59.0016 80.0544 58.8241 81.07C59.3358 80.9279 59.8547 80.8132 60.3785 80.7264C61.3337 80.6031 62.2949 80.5335 63.2578 80.5177C64.8826 80.5177 66.5073 80.6527 68.1321 80.6466C72.2625 80.6102 76.3248 79.5879 79.9828 77.6642C82.4345 76.4154 84.6702 74.7796 86.6043 72.8194C87.3294 72.0861 87.9628 72.083 88.6115 72.8992C90.0313 74.6911 91.4174 76.5106 92.7943 78.3362C94.4115 80.4647 95.8943 82.6925 97.2341 85.0066C97.5401 85.519 97.742 86.0774 97.9929 86.6113V87.2771C97.9623 87.3538 97.9317 87.4305 97.9042 87.5073C97.8523 87.7065 97.7552 87.8911 97.6204 88.0464C97.4856 88.2018 97.3168 88.3238 97.1271 88.4028C96.9374 88.4819 96.7321 88.5158 96.5272 88.5021C96.3223 88.4883 96.1233 88.4271 95.9459 88.3234C95.8143 88.2618 95.6865 88.1921 95.5634 88.1148C94.52 87.4397 93.4827 86.7555 92.4332 86.0866C91.0685 85.2152 89.71 84.3316 88.3178 83.5031C87.9117 83.2389 87.4561 83.0605 86.979 82.9787C86.5018 82.8969 86.013 82.9136 85.5425 83.0276C84.7579 83.2337 83.9946 83.5141 83.2629 83.8652C77.2902 86.7923 71.4408 89.9506 65.7149 93.34C64.0044 94.3587 62.294 95.3866 60.4061 96.0647C58.8514 96.6802 57.1592 96.8605 55.5103 96.5863C53.1543 96.1444 51.3092 94.8435 49.7548 93.0792C48.3871 91.5267 47.411 89.7256 46.5267 87.8632C45.4272 85.5558 44.3267 83.2495 43.2252 80.9442C43.0079 80.4901 42.7356 80.0575 42.4724 79.585C41.836 81.2664 40.7712 82.6011 39.6574 83.902C38.6048 85.1293 37.5155 86.329 36.4721 87.5533C35.9489 88.1669 35.4532 88.7806 34.9422 89.4157C35.8548 90.2029 36.5856 91.1797 37.0841 92.2784C38.1459 94.552 38.308 96.9698 38.152 99.4152C38.0235 101.492 37.7848 103.564 37.6318 105.638C37.5313 107.094 37.6343 108.558 37.9378 109.985C38.3631 112.05 39.1923 113.974 40.0797 115.873C41.3464 118.635 42.7601 121.304 43.4455 124.299H64.9193C65.107 124.287 65.2864 124.217 65.4333 124.099C68.9552 121.436 72.8932 119.936 77.3146 119.804C79.3678 119.736 81.3811 119.97 83.266 120.866C84.2392 121.268 85.0852 121.927 85.7139 122.774C86.54 124.001 86.1208 125.229 84.7133 125.649C84.135 125.821 83.5261 125.898 82.9294 126.014L81.2282 126.321C81.3964 126.441 81.4974 126.508 81.5953 126.582C84.444 128.748 85.7873 131.632 85.2671 135.173C84.7194 138.987 82.4704 141.49 78.7864 142.647C78.2601 142.81 77.7032 142.883 77.1616 143H75.5461C75.4968 142.972 75.4444 142.951 75.39 142.936C73.4937 142.725 71.7122 141.919 70.3003 140.632C68.8885 139.346 67.9186 137.644 67.5293 135.771H67.0765C53.3256 135.771 39.5738 135.776 25.8209 135.787C25.0693 135.801 24.3353 135.558 23.7404 135.097C23.1455 134.636 22.7255 133.985 22.5499 133.252C22.296 132.175 22.244 131.055 22.0787 129.954H22.9967C23.0793 130.62 23.165 131.288 23.2476 131.954C23.3302 132.62 23.4159 133.295 23.8595 133.854C24.3032 134.412 24.7591 134.814 25.4965 134.811H77.1678C77.5772 134.827 77.9761 134.679 78.2768 134.4C78.5775 134.121 78.7553 133.733 78.7711 133.323C78.7869 132.912 78.6395 132.512 78.3612 132.211C78.0829 131.909 77.6965 131.731 77.2871 131.715H67.5844C67.82 131.08 68.0311 130.509 68.2453 129.938L69.6957 127.668H22.5193C22.3732 127.664 22.2269 127.671 22.0818 127.689C21.6412 127.689 21.2036 127.689 20.763 127.662C20.3529 127.645 19.9625 127.481 19.6635 127.199C19.3644 126.918 19.1768 126.537 19.1352 126.128C19.0997 125.729 19.2089 125.331 19.4428 125.007C19.6767 124.683 20.0195 124.454 20.4081 124.363C20.8135 124.302 21.2222 124.265 21.632 124.253C19.8357 121.029 17.7895 117.951 15.5123 115.048C15.1207 116.987 14.7413 118.847 14.371 120.709C14.2119 121.507 14.0651 122.311 13.9243 123.112C13.7346 124.007 13.5357 124.9 13.3582 125.799C13.3614 125.853 13.3771 125.906 13.4042 125.953C13.4314 126 13.469 126.04 13.5143 126.069C14.9106 126.892 16.0703 128.063 16.8801 129.469C16.929 129.582 16.9688 129.696 17.0239 129.806C17.8983 131.437 18.2205 133.309 17.9418 135.139C17.3299 138.925 15.1605 141.435 11.5162 142.613C10.9685 142.791 10.3871 142.862 9.82108 142.985H8.19937C7.6333 142.862 7.06112 142.773 6.50423 142.617C4.82108 142.138 3.31497 141.175 2.17271 139.846C1.03046 138.518 0.302313 136.882 0.0786033 135.142C-0.331413 131.512 0.99655 128.607 3.94316 126.456C4.02883 126.391 4.10839 126.318 4.191 126.247C5.43006 125.499 6.82069 125.039 8.26057 124.9L8.7073 122.022C8.85723 121.206 9.01328 120.393 9.15098 119.568C9.48144 117.671 9.79354 115.769 10.1393 113.876C10.5799 111.455 11.0572 109.037 11.507 106.623C11.813 104.984 12.1588 103.352 12.4831 101.713C12.5106 101.587 12.5106 101.456 12.4831 101.33C12.3546 100.897 12.5015 100.676 12.9543 100.664H13.4255C13.7173 99.2321 14.0079 97.7849 14.2976 96.3224C15.1849 96.2457 15.7174 95.7947 15.8275 94.9754C16.0876 93.0486 16.3263 91.1217 16.5741 89.1917C16.8801 86.7371 17.1861 84.2825 17.5226 81.8463C17.6297 81.0025 17.6022 80.2354 16.7577 79.7445ZM57.5237 70.733C56.8903 67.6647 55.3543 63.9245 53.5612 60.9452C51.765 58.0375 49.5712 55.3966 47.0438 53.0996C45.5095 51.6692 44.1496 50.0614 42.9926 48.31C41.1567 45.5118 39.7951 42.4619 38.5895 39.3445C37.8185 37.3471 37.0596 35.3558 35.9367 33.5148C34.8137 31.6739 33.397 30.1182 31.4234 29.1487C28.639 27.7925 25.7322 28.3448 23.7371 30.5815C22.2681 32.2474 21.4449 34.3871 21.4178 36.6107C21.3726 38.424 21.6588 40.2303 22.2623 41.9403C23.622 45.8866 25.5574 49.6089 28.0056 52.9861C28.1647 53.2101 28.2902 53.4463 28.6176 53.5108C28.8471 53.5537 28.9052 53.8912 28.7522 54.0907C28.6735 54.1833 28.5876 54.2695 28.4952 54.3484C24.9912 57.5764 21.7249 61.0547 18.7221 64.756C18.0489 65.5875 17.4278 66.462 16.7485 67.361C17.6175 67.6678 18.1744 68.2201 18.7466 68.7724C19.6859 69.6928 20.6375 70.5826 21.5922 71.4939C23.1785 70.5669 24.6511 69.4568 25.98 68.1863C27.3875 66.7903 28.7338 65.3206 30.0863 63.8907C31.3347 62.5714 32.6412 61.3257 34.2966 60.5156C34.9086 60.2088 35.291 60.2732 35.7959 60.755C39.005 63.8053 42.7365 66.25 46.8113 67.9715C49.585 69.1537 52.4917 69.9934 55.4675 70.4722C56.1468 70.5765 56.8261 70.6409 57.5145 70.733H57.5237ZM17.5655 100.597C18.0459 100.762 18.1071 100.888 17.9755 101.367C17.5257 103.011 17.1004 104.662 16.6169 106.294C16.4796 106.71 16.4517 107.155 16.5359 107.585C16.62 108.015 16.8134 108.416 17.0973 108.749C18.4284 110.455 19.7594 112.161 21.0353 113.91C22.602 116.058 24.1135 118.254 25.6434 120.433C25.6757 120.5 25.7291 120.555 25.7955 120.589C25.8618 120.622 25.9374 120.634 26.0106 120.62C27.053 120.527 28.0328 120.081 28.7889 119.356C30.1169 118.107 30.7594 116.594 30.4382 114.754C30.2409 113.779 29.8809 112.846 29.3733 111.992C26.8157 107.412 24.8234 102.536 23.4403 97.473C22.7444 95.063 22.245 92.6003 21.9472 90.1091C21.6971 87.7446 21.8733 85.3541 22.4673 83.0521C24.4776 75.2065 28.6696 68.7693 34.8198 63.59C35.3125 63.1758 35.8234 62.7862 36.3314 62.3811C35.9122 61.9915 35.5266 61.6141 35.1074 61.2643C35.0535 61.2285 34.9919 61.2057 34.9277 61.1977C34.8635 61.1897 34.7983 61.1968 34.7372 61.2183C34.3663 61.403 34.0057 61.6078 33.6571 61.8319C32.0874 62.8475 30.8451 64.219 29.6365 65.6182C27.5885 68.0257 25.2133 70.1328 22.5805 71.8775C21.9234 72.3521 21.2941 72.8644 20.6957 73.4116C20.9036 73.8816 21.0874 74.3619 21.2465 74.8506C21.4515 75.6637 21.2679 76.4799 21.1424 77.3052L20.2245 83.2055C19.9613 84.8808 19.7033 86.5581 19.4503 88.2375C19.1974 89.9169 18.9424 91.5819 18.6854 93.2326C18.4263 94.91 18.1673 96.5873 17.9082 98.2646C17.795 99.0348 17.6818 99.8202 17.5655 100.597ZM26.745 19.9438C28.1158 19.8947 28.7308 19.1921 28.9756 18.0262C29.1622 17.1302 29.3948 16.2404 29.5019 15.3384C29.67 14.1546 29.7468 12.9595 29.7313 11.7638C29.6509 10.3994 29.4905 9.04085 29.2509 7.69529C29.1125 6.77198 28.7592 5.89431 28.2198 5.13328C27.4853 4.16643 26.5333 3.38738 25.4415 2.85968C22.4912 1.28888 19.1401 0.638171 15.8183 0.991105C13.8914 1.14731 12.1016 2.05238 10.8308 3.51323C9.73267 4.79173 8.8734 6.2583 8.29423 7.84256C8.04946 8.61863 7.86029 9.41124 7.72816 10.2143C7.68226 10.4168 7.77406 10.5212 7.9913 10.5611C9.80998 10.8281 11.6075 11.2239 13.3705 11.7454C14.4078 12.0522 15.3441 12.4849 16.0264 13.3716C16.2678 13.6965 16.5316 14.0041 16.8158 14.2921C17.3054 14.7677 17.7674 14.8075 18.3855 14.5253C19.3035 14.108 20.0837 13.4391 21.0904 13.1906C22.5499 12.8346 24.0554 13.0003 25.0682 14.3197C25.8052 15.3437 26.2915 16.5272 26.4879 17.7746C26.595 18.4833 26.647 19.2167 26.7358 19.9438H26.745ZM17.0943 101.489C16.9872 101.489 16.9137 101.489 16.8434 101.489C15.7449 101.489 14.6464 101.508 13.5479 101.532C13.5019 101.542 13.4591 101.563 13.4232 101.594C13.3874 101.624 13.3598 101.663 13.3429 101.707C13.2603 102.014 13.2052 102.321 13.144 102.628C12.5688 105.573 11.9844 108.516 11.4275 111.464C10.9746 113.864 10.5432 116.267 10.1332 118.675C9.78742 120.672 9.4692 122.664 9.14792 124.676C8.87253 126.468 8.56655 128.278 8.30341 130.095C8.17489 131 8.10758 131.917 8.05862 132.832C8.0513 133.287 8.22145 133.728 8.53289 134.059C9.06836 134.691 9.83944 134.713 10.3688 134.059C10.616 133.758 10.802 133.41 10.9165 133.037C11.1643 132.175 11.3602 131.292 11.5285 130.411C12.2179 127.132 12.8982 123.856 13.5694 120.583C14.0039 118.435 14.4353 116.283 14.8637 114.125C14.9065 113.91 14.9555 113.723 15.2125 113.677C15.4695 113.631 15.5858 113.772 15.7204 113.943C18.2532 117.109 20.5114 120.487 22.4704 124.038C22.5078 124.125 22.5728 124.197 22.6552 124.243C22.7376 124.289 22.8329 124.307 22.9263 124.293H27.1794C27.1448 124.227 27.1081 124.163 27.0693 124.099C24.3889 119.914 21.5433 115.852 18.5324 111.912C17.7552 110.894 16.9352 109.9 16.2008 108.844C15.9381 108.447 15.7628 107.998 15.6868 107.528C15.5368 106.684 15.8734 105.889 16.0876 105.092C16.4089 103.889 16.7546 102.698 17.0943 101.489ZM27.6935 53.9618C26.3137 52.1056 25.0857 50.1407 24.0217 48.0861C22.4122 44.9472 20.9619 41.7439 20.6559 38.1633C20.4264 35.6166 20.8609 33.2203 22.3266 31.0786C23.4679 29.4125 24.9488 28.2098 26.9591 27.7526C27.3141 27.6698 27.6813 27.636 28.1127 27.5654C26.8888 26.8873 26.3166 25.792 25.8698 24.6168C25.835 24.6317 25.8012 24.6492 25.7689 24.669C24.3201 25.9398 22.5128 26.7269 20.5978 26.9211C20.5482 26.9385 20.5033 26.9673 20.4666 27.0051C20.43 27.0429 20.4026 27.0887 20.3866 27.1389C20.2918 27.5409 20.2184 27.949 20.148 28.3663C19.6094 31.4898 19.0434 34.6102 18.5508 37.7429C18.189 39.8586 18.1385 42.016 18.4008 44.1464C18.5594 45.5587 19.0219 46.9196 19.7563 48.1352C20.5152 49.3625 21.5922 50.2829 22.6968 51.1819C24.1043 52.354 25.5394 53.5046 26.3043 55.2934L27.6935 53.9618ZM41.4382 120.801C39.9695 117.193 37.9164 113.855 37.1116 110.004C34.5414 109.924 31.9687 110.013 29.4101 110.271C29.8476 111.161 30.2913 111.998 30.6829 112.86C31.4601 114.582 31.6254 116.328 30.7962 118.092C30.7767 118.16 30.7751 118.233 30.7918 118.302C30.8084 118.372 30.8426 118.435 30.891 118.488C31.5575 119.076 32.2742 119.605 33.0329 120.068C35.7072 121.504 38.5528 121.409 41.4382 120.801ZM9.81496 11.7976C9.84862 12.0338 9.87921 12.1903 9.89145 12.3468C9.98631 13.5741 10.0628 14.8014 10.1699 16.0471C10.2586 17.0719 10.2525 18.0415 9.40494 18.8086C9.00716 19.1768 9.09896 19.3425 9.60689 19.4867C9.66482 19.5057 9.72416 19.52 9.78436 19.5296C10.0872 19.574 10.3746 19.6923 10.6211 19.8742C10.8676 20.0561 11.0657 20.296 11.198 20.5728C11.3938 20.9625 11.5438 21.3767 11.7212 21.7756C12.3087 23.095 13.089 24.2548 14.3557 25.0188C14.4885 25.1114 14.6473 25.1593 14.809 25.1554C14.9708 25.1516 15.1271 25.0962 15.2553 24.9973C16.204 24.3729 16.8978 23.4279 17.2105 22.334C17.746 20.6956 18.1683 19.0234 18.6119 17.3205C18.7894 16.6424 18.8873 15.9428 19.0342 15.1727C18.7793 15.3174 18.5133 15.4416 18.2386 15.5439C17.4676 15.7434 16.2436 15.2371 15.8214 14.5467C15.5072 14.0409 15.0956 13.6029 14.6107 13.2584C14.1258 12.9139 13.5772 12.6697 12.9972 12.5401C12.2383 12.3468 11.4856 12.1566 10.7298 11.9663C10.4422 11.9234 10.1515 11.8743 9.81496 11.7976ZM7.72816 128.343C6.75707 128.567 5.8611 129.041 5.12885 129.719C4.39659 130.397 3.85341 131.254 3.55301 132.207C3.25261 133.16 3.2054 134.174 3.41604 135.151C3.62667 136.128 4.08787 137.032 4.75403 137.775C5.42018 138.518 6.26822 139.074 7.21429 139.388C8.16037 139.702 9.17171 139.762 10.1483 139.564C11.1249 139.366 12.033 138.915 12.7827 138.257C13.5324 137.599 14.0978 136.756 14.423 135.811C15.341 133.206 14.1477 130.58 12.5872 129.494C12.4464 130.199 12.3087 130.893 12.168 131.583C11.9568 132.611 11.7365 133.633 11.0817 134.501C10.1638 135.704 8.71342 135.698 7.81077 134.486C7.11925 133.565 7.14679 132.5 7.2906 131.417C7.41912 130.402 7.57517 129.401 7.72816 128.343ZM70.9655 135.756C71.6019 138.137 74.1875 139.84 76.8404 139.653C78.1725 139.541 79.4239 138.967 80.3787 138.029C81.3335 137.091 81.9316 135.848 82.0698 134.514C82.208 133.181 81.8776 131.841 81.1357 130.726C80.3938 129.611 79.2869 128.791 78.0062 128.407C75.2523 127.591 72.6392 129 71.6295 130.758H76.8771C77.2656 130.755 77.6526 130.806 78.0276 130.908C78.5606 131.064 79.0219 131.404 79.3311 131.866C79.6404 132.329 79.7779 132.885 79.7197 133.439C79.5697 134.884 78.5324 135.75 77.0851 135.75L70.9655 135.756ZM89.7895 83.2884C89.7987 83.1361 89.7987 82.9834 89.7895 82.8312C89.5965 81.0647 88.9186 79.3866 87.8312 77.9833C87.0571 76.9984 86.2034 76.0963 84.9367 75.7251C84.8563 75.6944 84.7692 75.6862 84.6846 75.7013C84.6 75.7165 84.5211 75.7544 84.4563 75.811C83.0047 76.9246 81.4444 77.8878 79.7992 78.686C79.4932 78.8363 79.1873 78.9928 78.8629 79.1309C79.5514 80.8215 80.3041 82.4354 81.5862 83.7333C82.4154 83.3528 83.2354 82.957 84.0707 82.598C85.3559 82.0488 86.6746 81.8923 88.0026 82.4323C88.6054 82.6747 89.1776 82.9969 89.7895 83.2884V83.2884ZM20.9955 72.0646C19.7716 70.911 18.5936 69.7788 17.3972 68.6588C17.1968 68.4845 16.9746 68.337 16.7363 68.2201C16.6587 68.1784 16.5692 68.1647 16.4828 68.1815C16.3964 68.1983 16.3184 68.2444 16.262 68.3121C15.8926 68.6606 15.4648 68.941 14.9983 69.1406C14.3016 69.3639 13.5839 69.515 12.8564 69.5916C11.66 69.7542 10.586 70.1255 9.77212 71.0736C8.98388 72.0213 8.34041 73.0812 7.86279 74.2186C7.78725 74.415 7.74285 74.622 7.73122 74.8322C7.7122 75.028 7.74827 75.2252 7.83534 75.4014C7.92242 75.5777 8.05701 75.726 8.22385 75.8294C8.52983 75.9644 8.86335 75.8539 9.16934 75.4551C9.38658 75.1472 9.57992 74.8231 9.74764 74.4855C9.94041 74.1326 10.0812 73.7491 10.2953 73.4147C10.5098 73.0096 10.8758 72.7065 11.313 72.5719C11.7502 72.4373 12.2227 72.4821 12.6269 72.6967V72.6967C13.0319 72.8929 13.4181 73.1261 13.7805 73.3932C14.6023 73.9789 15.598 74.2677 16.6047 74.2124C18.358 74.1326 19.7624 73.3318 20.9955 72.0646ZM26.3135 121.433C26.8826 122.305 27.4457 123.148 27.9781 124.004C28.0233 124.103 28.0973 124.185 28.1903 124.239C28.2832 124.294 28.3907 124.319 28.4982 124.311H42.6285L41.7809 121.605C37.5186 122.476 33.5531 122.252 30.2179 119.061C29.2773 120.335 27.8749 121.187 26.3135 121.433V121.433ZM85.5364 75.004C85.9907 75.2525 86.4291 75.5292 86.849 75.8325C89.3122 77.8606 90.5208 80.5116 90.6677 83.678C90.6694 83.7358 90.6824 83.7926 90.7061 83.8452C90.7297 83.8979 90.7634 83.9453 90.8054 83.9849C92.5985 85.1631 94.3976 86.326 96.1999 87.4919C96.4202 87.633 96.7078 87.7742 96.9006 87.5563C96.989 87.4549 97.056 87.3365 97.0976 87.2084C97.1391 87.0802 97.1543 86.945 97.1423 86.8107C97.0251 86.3537 96.8438 85.9157 96.6038 85.5098C94.6866 82.2688 92.5499 79.1636 90.2087 76.216C89.4591 75.2495 88.7002 74.2891 87.9445 73.3288C87.7701 73.1078 87.5834 73.0219 87.3325 73.249C86.7328 73.8565 86.1208 74.4364 85.5364 75.004ZM17.8837 24.5125C18.1849 24.5474 18.4841 24.5976 18.7802 24.6628C19.3885 24.82 19.9132 25.2056 20.2459 25.7398C20.353 25.9116 20.4356 26.1356 20.7355 26.0896C22.4718 25.8595 24.0938 25.0939 25.3772 23.8988C25.4222 23.8517 25.4558 23.7948 25.4755 23.7326C25.4951 23.6703 25.5002 23.6044 25.4904 23.5399C25.2456 22.6807 24.8785 22.4169 23.9881 22.4169H23.5138C22.8394 22.4048 22.1786 22.2246 21.591 21.8925C21.0034 21.5604 20.5075 21.0868 20.148 20.5145C19.842 20.0604 19.9277 19.8242 20.454 19.637C21.2669 19.3575 21.9749 18.835 22.4826 18.1397C22.9308 17.5572 23.1519 16.8309 23.1046 16.0967C23.0573 15.3625 22.7448 14.6708 22.2256 14.1509C22.1084 14.0347 21.9526 13.9659 21.788 13.9576C21.5022 13.9882 21.2208 14.052 20.9497 14.1479C20.9058 14.1674 20.8672 14.1971 20.8369 14.2344C20.8066 14.2717 20.7855 14.3156 20.7752 14.3626C20.5427 15.6544 20.3989 16.9707 20.0776 18.244C19.5299 20.3887 19.1841 22.6194 17.8837 24.5125ZM9.5151 70.0641C9.0194 70.0181 8.53901 69.9629 8.05556 69.926C7.0123 69.8332 5.96103 69.9479 4.96208 70.2635C4.55206 70.3955 4.60714 70.7361 4.60714 71.049C4.60714 71.362 4.65916 71.6105 4.9988 71.6627C5.95652 71.7977 6.91731 71.9143 7.87809 72.0309C7.92411 72.0343 7.97031 72.0273 8.01323 72.0103C8.05615 71.9933 8.09468 71.9667 8.12594 71.9327C8.58797 71.3221 9.03776 70.7084 9.5151 70.0641Z" fill="#080808"/>
<path d="M16.7587 79.7445C17.6032 80.2355 17.6307 80.9933 17.5114 81.8494C17.1748 84.304 16.8749 86.7586 16.5628 89.1948C16.315 91.1248 16.0763 93.0516 15.8162 94.9785C15.7091 95.7977 15.1767 96.2488 14.2863 96.3255C13.3898 96.0831 12.9369 95.6689 12.9155 94.9356C12.9283 94.4475 12.9795 93.9612 13.0685 93.4812C13.2521 92.0391 13.4377 90.596 13.6254 89.1519L14.1884 84.8225C14.3414 83.6228 14.5556 82.4262 14.6321 81.2235C14.6872 80.2201 15.5133 79.2996 16.7587 79.7445Z" fill="#71C064"/>
<path d="M8.7052 122.016L8.26152 124.894C6.82222 125.033 5.43242 125.494 4.19502 126.244C4.05121 125.342 3.91351 124.437 3.76052 123.535C3.74846 123.5 3.7434 123.463 3.74563 123.426C3.74787 123.389 3.75736 123.353 3.77355 123.319C3.78975 123.286 3.81234 123.256 3.84003 123.232C3.86772 123.207 3.89997 123.188 3.93493 123.176H3.95329C5.44546 122.479 7.06044 122.085 8.7052 122.016V122.016Z" fill="#71C064"/>
<path d="M57.5246 70.7331C56.8331 70.641 56.1569 70.5766 55.4868 70.4662C52.5057 69.9886 49.5938 69.1489 46.8152 67.9655C42.7407 66.2448 39.0091 63.8012 35.7998 60.752C35.295 60.2703 34.9217 60.212 34.3005 60.5127C32.6452 61.3196 31.3386 62.5653 30.0902 63.8878C28.7255 65.3299 27.3914 66.7996 25.9839 68.1834C24.6551 69.4538 23.1824 70.5639 21.5961 71.491C20.6415 70.5705 19.6899 69.6807 18.7505 68.7694C18.1783 68.2171 17.6214 67.6525 16.7524 67.358C17.4409 66.4559 18.0529 65.5815 18.726 64.7408C21.7289 61.0395 24.9951 57.5612 28.4991 54.3332C28.5915 54.2543 28.6775 54.1681 28.7561 54.0754C28.9091 53.876 28.851 53.5385 28.6215 53.4955C28.291 53.4311 28.1656 53.1887 28.0095 52.9709C25.5614 49.5937 23.6259 45.8713 22.2662 41.9251C21.6628 40.2182 21.3755 38.4151 21.4187 36.6047C21.4504 34.3845 22.2756 32.2495 23.7441 30.5878C25.7391 28.351 28.6399 27.7987 31.4304 29.1549C33.4009 30.1122 34.7962 31.6678 35.9253 33.5057C37.0544 35.3436 37.8071 37.3472 38.5782 39.3354C39.7837 42.4528 41.1301 45.5027 42.9813 48.3009C44.135 50.0558 45.4929 51.6667 47.0263 53.0997C49.5545 55.3967 51.7494 58.0376 53.5468 60.9453C55.3399 63.9246 56.8759 67.6648 57.5246 70.7331Z" fill="white"/>
<path d="M68.234 129.945C68.0198 130.515 67.8087 131.086 67.5731 131.721H77.1412C77.3439 131.711 77.5466 131.742 77.7376 131.81C77.9287 131.879 78.1044 131.985 78.2547 132.121C78.405 132.258 78.527 132.423 78.6136 132.607C78.7003 132.791 78.75 132.991 78.7598 133.194C78.7697 133.397 78.7395 133.601 78.671 133.792C78.6025 133.984 78.4971 134.16 78.3607 134.311C78.2243 134.461 78.0597 134.584 77.8761 134.671C77.6926 134.757 77.4938 134.807 77.2911 134.817H25.4852C24.7478 134.817 24.2613 134.397 23.8482 133.86C23.4351 133.323 23.3342 132.633 23.2363 131.961C23.1383 131.289 23.068 130.626 22.9854 129.96C23.0833 129.96 23.1812 129.945 23.2913 129.945H68.234Z" fill="white"/>
<path d="M26.7368 19.9439C26.6481 19.2167 26.5961 18.4834 26.4615 17.7654C26.2651 16.518 25.7787 15.3345 25.0417 14.3105C24.0442 12.9911 22.5388 12.8255 21.0639 13.1814C20.0572 13.4299 19.2739 14.1019 18.359 14.5161C17.7471 14.7984 17.2789 14.7585 16.7894 14.2829C16.5051 13.9949 16.2414 13.6873 15.9999 13.3624C15.3176 12.4757 14.3813 12.0338 13.344 11.7362C11.59 11.2207 9.80157 10.8311 7.99237 10.5703C7.77512 10.5427 7.68639 10.4261 7.72922 10.2236C7.86136 9.42047 8.05053 8.62786 8.29529 7.85179C8.87311 6.26411 9.73246 4.79428 10.8319 3.51325C12.1027 2.0524 13.8925 1.14734 15.8194 0.991127C19.1381 0.639873 22.4858 1.29054 25.4334 2.85971C26.5252 3.3874 27.4772 4.16645 28.2117 5.1333C28.7511 5.89433 29.1044 6.772 29.2428 7.69531C29.4824 9.04087 29.6428 10.3994 29.7232 11.7638C29.7388 12.9605 29.6621 14.1566 29.4937 15.3414C29.3866 16.2435 29.1541 17.1333 28.9675 18.0293C28.7227 19.1921 28.1076 19.8948 26.7368 19.9439Z" fill="white"/>
<path d="M17.0954 101.49C16.7557 102.698 16.41 103.889 16.0887 105.086C15.8745 105.883 15.5379 106.678 15.6878 107.522C15.7552 108.001 15.9265 108.46 16.1896 108.866C16.924 109.915 17.744 110.909 18.5212 111.934C21.5321 115.874 24.3777 119.928 27.0581 124.097C27.0969 124.162 27.1336 124.226 27.1683 124.29H22.9151C22.8218 124.304 22.7265 124.286 22.644 124.24C22.5616 124.194 22.4966 124.122 22.4592 124.035C20.5002 120.484 18.242 117.106 15.7093 113.941C15.5746 113.769 15.4522 113.634 15.2013 113.674C14.9504 113.714 14.8953 113.907 14.8525 114.122C14.4241 116.276 13.9927 118.428 13.5582 120.58C12.883 123.874 12.2088 127.161 11.5357 130.442C11.3521 131.322 11.1562 132.206 10.9084 133.068C10.7932 133.439 10.6072 133.784 10.3607 134.084C9.84358 134.722 9.0725 134.697 8.52479 134.084C8.21335 133.752 8.0432 133.312 8.05052 132.857C8.09948 131.936 8.16679 131.016 8.29531 130.12C8.55233 128.306 8.84913 126.496 9.13982 124.689C9.4611 122.685 9.77932 120.685 10.1251 118.687C10.5331 116.282 10.9645 113.878 11.4194 111.477C11.9763 108.528 12.5607 105.586 13.1359 102.64C13.1971 102.333 13.2522 102.026 13.3348 101.72C13.3517 101.676 13.3793 101.637 13.4151 101.606C13.451 101.575 13.4938 101.554 13.5398 101.545C14.6383 101.52 15.7368 101.514 16.8353 101.502C16.9209 101.485 17.0085 101.481 17.0954 101.49Z" fill="white"/>
<path d="M68.2343 129.945H23.2885C23.1863 129.943 23.084 129.948 22.9825 129.96H22.0646C21.8483 129.224 21.8483 128.441 22.0646 127.705C22.2084 127.705 22.3706 127.683 22.5021 127.683H69.6969L68.2343 129.945Z" fill="#71C064"/>
<path d="M27.6945 53.962L26.3146 55.2752C25.5496 53.4864 24.1146 52.3358 22.707 51.1637C21.6177 50.2432 20.5254 49.3473 19.7665 48.1169C19.0321 46.9014 18.5697 45.5405 18.411 44.1282C18.1472 42.0033 18.1946 39.8511 18.5518 37.74C19.0444 34.6073 19.6105 31.4869 20.149 28.3634C20.2194 27.9553 20.2928 27.5472 20.3877 27.1361C20.4037 27.0859 20.4311 27.04 20.4677 27.0022C20.5043 26.9644 20.5492 26.9357 20.5988 26.9182C22.5099 26.7332 24.3167 25.9581 25.7699 24.6999C25.8023 24.68 25.836 24.6626 25.8709 24.6477C26.3176 25.8229 26.8837 26.9182 28.1137 27.5963C27.6823 27.6669 27.3151 27.7006 26.9602 27.7835C24.9499 28.2253 23.4689 29.4281 22.3184 31.0941C20.8528 33.2419 20.4183 35.6321 20.6478 38.1788C20.9538 41.7595 22.4041 44.9627 24.0136 48.1016C25.0804 50.1517 26.3114 52.1116 27.6945 53.962V53.962Z" fill="white"/>
<path d="M41.4396 120.801C38.5419 121.415 35.7055 121.504 33.0281 120.068C32.2695 119.605 31.5528 119.076 30.8862 118.488C30.8378 118.435 30.8036 118.372 30.787 118.302C30.7704 118.233 30.7719 118.16 30.7914 118.092C31.6206 116.328 31.4554 114.582 30.6782 112.86C30.2865 111.998 29.8428 111.161 29.4053 110.271C31.9639 110.013 34.5366 109.924 37.1068 110.004C37.9177 113.855 39.9708 117.208 41.4396 120.801Z" fill="white"/>
<path d="M9.81571 11.7976C10.1523 11.8682 10.4277 11.9173 10.7337 11.9878C11.4894 12.1719 12.2636 12.3622 13.001 12.5555C13.5796 12.6858 14.1266 12.93 14.6104 13.2739C15.0941 13.6178 15.505 14.0547 15.8191 14.5591C16.2413 15.2463 17.4653 15.7557 18.2363 15.5562C18.511 15.4539 18.777 15.3298 19.0319 15.185C18.885 15.9428 18.7871 16.6424 18.6096 17.3328C18.166 19.0234 17.7468 20.7079 17.2082 22.3555C16.8955 23.4494 16.2017 24.3944 15.253 25.0188C15.1248 25.1177 14.9685 25.1731 14.8067 25.1769C14.645 25.1808 14.4862 25.1329 14.3534 25.0403C13.0867 24.2763 12.3064 23.1165 11.7189 21.7848C11.5415 21.386 11.3915 20.9717 11.1957 20.5821C11.0627 20.3088 10.8654 20.072 10.6206 19.8924C10.3759 19.7128 10.0912 19.5956 9.79123 19.5511C9.73104 19.5415 9.67169 19.5272 9.61376 19.5082C9.09665 19.364 9.0018 19.2014 9.41181 18.8301C10.2594 18.0508 10.2655 17.0812 10.1768 16.0686C10.0697 14.8413 9.99318 13.614 9.89833 12.3683C9.87997 12.1965 9.84937 12.04 9.81571 11.7976Z" fill="white"/>
<path d="M7.72949 128.343C7.5765 129.402 7.4235 130.414 7.28275 131.43C7.13894 132.501 7.1114 133.553 7.80292 134.498C8.70557 135.71 10.162 135.725 11.0739 134.498C11.7287 133.63 11.949 132.608 12.1601 131.58C12.3009 130.89 12.4386 130.196 12.5793 129.491C14.149 130.577 15.3331 133.203 14.4152 135.808C14.09 136.753 13.5246 137.596 12.7749 138.254C12.0251 138.912 11.1171 139.363 10.1405 139.561C9.16386 139.759 8.15251 139.699 7.20644 139.385C6.26037 139.071 5.41233 138.516 4.74617 137.772C4.08002 137.029 3.61882 136.125 3.40818 135.148C3.19754 134.171 3.24476 133.157 3.54516 132.204C3.84556 131.251 4.38874 130.394 5.12099 129.716C5.85325 129.038 6.74922 128.564 7.72031 128.34L7.72949 128.343Z" fill="white"/>
<path d="M70.9668 135.756H77.0865C78.5338 135.756 79.571 134.891 79.721 133.446C79.7792 132.892 79.6417 132.335 79.3324 131.872C79.0232 131.41 78.5619 131.071 78.0289 130.914C77.6539 130.812 77.2669 130.762 76.8784 130.764H71.6308C72.6405 129.006 75.2444 127.597 78.0075 128.414C79.2882 128.797 80.3951 129.618 81.137 130.733C81.879 131.848 82.2093 133.187 82.0711 134.521C81.9329 135.854 81.3348 137.097 80.38 138.035C79.4252 138.973 78.1738 139.547 76.8417 139.659C74.1888 139.852 71.6002 138.149 70.9668 135.756Z" fill="white"/>
<path d="M89.7904 83.2884C89.1784 82.9816 88.6062 82.6748 88.0035 82.4232C86.6755 81.8832 85.3567 82.0397 84.0716 82.5889C83.2363 82.9479 82.4162 83.3437 81.587 83.7241C80.305 82.4355 79.5522 80.8216 78.8638 79.1217C79.1698 78.9714 79.4757 78.8149 79.8001 78.6768C81.4432 77.8785 83.0015 76.9153 84.451 75.8019C84.5158 75.7452 84.5947 75.7073 84.6793 75.6922C84.7639 75.6771 84.8511 75.6853 84.9314 75.716C86.1982 76.0872 87.0519 76.9893 87.826 77.9742C88.9133 79.3774 89.5912 81.0556 89.7843 82.8221C89.7955 82.9773 89.7975 83.133 89.7904 83.2884V83.2884Z" fill="white"/>
<path d="M20.9965 72.0647C19.7726 73.3289 18.3497 74.1327 16.6026 74.2125C15.5928 74.2699 14.5935 73.981 13.7692 73.3933C13.4068 73.1262 13.0206 72.893 12.6156 72.6968C12.4158 72.5894 12.1968 72.5227 11.9712 72.5004C11.7456 72.4781 11.5178 72.5006 11.301 72.5667C11.0841 72.6329 10.8823 72.7413 10.7073 72.8858C10.5323 73.0302 10.3874 73.2079 10.281 73.4086V73.4086C10.0668 73.7431 9.92605 74.1266 9.73328 74.4795C9.56556 74.817 9.37222 75.1412 9.15498 75.449C8.849 75.8479 8.50324 75.9584 8.20949 75.8234C8.04265 75.7199 7.90806 75.5717 7.82099 75.3954C7.73391 75.2191 7.69784 75.0219 7.71686 74.8262C7.7285 74.616 7.77289 74.4089 7.84843 74.2125C8.33657 73.0741 8.99145 72.0151 9.79142 71.0706C10.6053 70.1225 11.6793 69.7513 12.8757 69.5886C13.6032 69.512 14.3209 69.3609 15.0176 69.1376C15.4841 68.938 15.9119 68.6576 16.2813 68.3092C16.4557 68.165 16.5873 68.1281 16.7556 68.2171C16.9968 68.3339 17.222 68.4814 17.4257 68.6559C18.5945 69.7881 19.797 70.9111 20.9965 72.0647Z" fill="white"/>
<path d="M26.3145 121.433C27.8767 121.183 29.2781 120.327 30.2157 119.049C33.5509 122.24 37.5165 122.464 41.7788 121.593L42.6264 124.299H28.4961C28.3902 124.308 28.284 124.286 28.1912 124.234C28.0985 124.182 28.0234 124.103 27.9759 124.008C27.4466 123.148 26.8805 122.305 26.3145 121.433Z" fill="white"/>
<path d="M85.5376 75.0041C86.122 74.4457 86.734 73.8658 87.3398 73.2767C87.5846 73.0373 87.7713 73.1355 87.9518 73.3564C88.7076 74.3168 89.4664 75.2772 90.2161 76.2437C92.5538 79.1836 94.6865 82.2817 96.5989 85.516C96.8389 85.9219 97.0202 86.36 97.1374 86.817C97.1494 86.9512 97.1342 87.0864 97.0927 87.2146C97.0511 87.3427 96.9841 87.4611 96.8957 87.5626C96.7029 87.7804 96.4153 87.6393 96.195 87.4981C94.3927 86.3322 92.5936 85.1693 90.8005 83.9911C90.7567 83.9498 90.7219 83.8998 90.6982 83.8444C90.6745 83.789 90.6624 83.7292 90.6628 83.6689C90.5129 80.5025 89.3073 77.8392 86.8441 75.8233C86.4262 75.5231 85.9898 75.2495 85.5376 75.0041V75.0041Z" fill="white"/>
<path d="M17.8848 24.5127C19.1852 22.6196 19.5309 20.3889 20.0725 18.2565C20.3785 16.9831 20.5376 15.6668 20.7702 14.3751C20.7804 14.3281 20.8015 14.2842 20.8318 14.2469C20.8621 14.2095 20.9008 14.1799 20.9446 14.1603C21.2157 14.0645 21.4971 14.0006 21.783 13.9701C21.9476 13.9784 22.1033 14.0472 22.2205 14.1634C22.7397 14.6832 23.0522 15.375 23.0995 16.1091C23.1468 16.8433 22.9257 17.5696 22.4776 18.1522C21.968 18.8429 21.2602 19.361 20.4489 19.6372C19.9348 19.8244 19.8369 20.0606 20.1429 20.5147C20.5024 21.087 20.9983 21.5606 21.5859 21.8927C22.1735 22.2248 22.8343 22.405 23.5087 22.4171H23.983C24.8765 22.4171 25.2406 22.6809 25.4854 23.54C25.4951 23.6046 25.49 23.6705 25.4704 23.7327C25.4508 23.795 25.4172 23.8519 25.3721 23.899C24.0888 25.0941 22.4667 25.8597 20.7304 26.0898C20.4244 26.1358 20.3479 25.9118 20.2408 25.74C19.9082 25.2057 19.3834 24.8202 18.7752 24.663C18.4811 24.5976 18.1839 24.5474 17.8848 24.5127Z" fill="white"/>
<path d="M13.9284 123.112C15.753 123.936 17.3341 125.219 18.5181 126.836C18.547 126.9 18.5604 126.97 18.5572 127.04C18.554 127.11 18.5343 127.178 18.4997 127.238C17.9735 127.99 17.4257 128.727 16.8842 129.469C16.0744 128.063 14.9147 126.892 13.5184 126.069C13.4731 126.04 13.4354 126 13.4083 125.953C13.3812 125.906 13.3655 125.853 13.3623 125.799C13.5398 124.9 13.7387 124.008 13.9284 123.112Z" fill="#71C064"/>
<path d="M9.51613 70.0642C9.0388 70.7085 8.59819 71.3252 8.12697 71.9297C8.09572 71.9637 8.05719 71.9903 8.01427 72.0073C7.97135 72.0243 7.92515 72.0313 7.87913 72.0279C6.91834 71.9113 5.95756 71.7947 4.99984 71.6597C4.6602 71.6106 4.61124 71.3314 4.60818 71.046C4.60512 70.7607 4.5531 70.3925 4.96312 70.2606C5.96207 69.945 7.01334 69.8303 8.0566 69.923C8.54005 69.9568 9.02044 70.0182 9.51613 70.0642Z" fill="white"/>
</g>
<defs>
<clipPath id="clip0">
<rect width="98" height="143" fill="white"/>
</clipPath>
</defs>
</svg>
