<svg width="50" height="40" viewBox="0 0 50 40" fill="none" xmlns="http://www.w3.org/2000/svg">
<path d="M49.2192 4.73457C47.4093 5.53856 45.4628 6.08107 43.4192 6.32446C45.5048 5.07557 47.1054 3.09684 47.8596 0.737641C45.9082 1.89531 43.7481 2.73586 41.4473 3.18905C39.6057 1.22651 36.9811 4.16193e-07 34.077 4.16193e-07C28.5004 4.16193e-07 23.9791 4.52136 23.9791 10.098C23.9791 10.8893 24.0683 11.6596 24.2406 12.3986C15.8482 11.9781 8.407 7.9583 3.42664 1.84845C2.55772 3.33932 2.05966 5.07367 2.05966 6.92502C2.05966 10.4282 3.84227 13.5187 6.55175 15.3301C4.89693 15.277 3.33922 14.8233 1.97813 14.0665C1.97724 14.1085 1.97724 14.151 1.97724 14.1944C1.97724 19.0861 5.45803 23.1673 10.0779 24.0957C9.23046 24.326 8.33826 24.4499 7.41718 24.4499C6.76586 24.4499 6.13363 24.3869 5.51698 24.2684C6.80253 28.28 10.5316 31.1998 14.9496 31.2812C11.4936 33.9898 7.14003 35.604 2.40845 35.604C1.59378 35.604 0.790295 35.5557 1.08241e-07 35.463C4.46961 38.3286 9.77687 40 15.4793 40C34.0535 40 44.2095 24.6128 44.2095 11.2687C44.2095 10.8316 44.2007 10.395 44.1813 9.96231C46.1536 8.53878 47.8664 6.76017 49.2192 4.73457Z" fill="white"/>
</svg>
